<svg width="786" height="512" viewBox="0 0 786 512" fill="none" xmlns="http://www.w3.org/2000/svg">
<path d="M64.631 5.34004C-119.103 474.282 805.897 -238.218 790.631 389.34" stroke="#4B4B4B"/>
<path d="M70.631 -5.65996C-113.103 463.282 811.897 -249.218 796.631 378.34" stroke="#4B4B4B"/>
<path d="M76.631 -16.66C-107.103 452.282 817.897 -260.218 802.631 367.34" stroke="#4B4B4B"/>
<path d="M82.631 -27.66C-101.103 441.282 823.897 -271.218 808.631 356.34" stroke="#4B4B4B"/>
<path d="M88.631 -38.66C-95.1027 430.282 829.897 -282.218 814.631 345.34" stroke="#4B4B4B"/>
<path d="M94.631 -49.66C-89.1027 419.282 835.897 -293.218 820.631 334.34" stroke="#4B4B4B"/>
<path d="M100.631 -60.66C-83.1027 408.282 841.897 -304.218 826.631 323.34" stroke="#4B4B4B"/>
<path d="M106.631 -71.66C-77.1027 397.282 847.897 -315.218 832.631 312.34" stroke="#4B4B4B"/>
<path d="M112.631 -82.66C-71.1027 386.282 853.897 -326.218 838.631 301.34" stroke="#4B4B4B"/>
<path d="M118.631 -93.66C-65.1027 375.282 859.897 -337.218 844.631 290.34" stroke="#4B4B4B"/>
<path d="M124.631 -104.66C-59.1027 364.282 865.897 -348.218 850.631 279.34" stroke="#4B4B4B"/>
<path d="M130.631 -115.66C-53.1027 353.282 871.897 -359.218 856.631 268.34" stroke="#4B4B4B"/>
<path d="M136.631 -126.66C-47.1027 342.282 877.897 -370.218 862.631 257.34" stroke="#4B4B4B"/>
<path d="M142.631 -137.66C-41.1027 331.282 883.897 -381.218 868.631 246.34" stroke="#4B4B4B"/>
<path d="M148.631 -148.66C-35.1027 320.282 889.897 -392.218 874.631 235.34" stroke="#4B4B4B"/>
<path d="M154.631 -159.66C-29.1027 309.282 895.897 -403.218 880.631 224.34" stroke="#4B4B4B"/>
<path d="M160.631 -170.66C-23.1027 298.282 901.897 -414.218 886.631 213.34" stroke="#4B4B4B"/>
<path d="M160.631 -170.66C-23.1027 298.282 901.897 -414.218 886.631 213.34" stroke="#4B4B4B"/>
</svg>
