<svg width="466" height="464" viewBox="0 0 466 464" fill="none" xmlns="http://www.w3.org/2000/svg">
<g clip-path="url(#clip0_90_7214)">
<path d="M450.127 179.667C445.101 117.76 442.588 86.8062 430.889 66.7796C397.393 9.43751 300.013 -4.20077 238.508 1.02917C156.169 8.02728 61.973 55.3122 20.5095 146.609C-17.1502 229.531 0.214824 323.393 56.9598 384.792C160.983 497.348 375.558 477.252 427.975 403.395C448.893 373.919 450.401 326.84 452.617 257.682C453.684 224.39 451.607 197.861 450.129 179.666L450.127 179.667Z" fill="#F4F7FA" fill-opacity="0.16"/>
<path d="M410.669 37.8756C405.346 33.4759 397.271 31.0797 390.444 30.5958C342.057 27.1705 334.995 128.208 342.412 150.788C349.828 173.369 345.023 180.783 306.913 192.596C268.804 204.41 287.087 227.156 291.731 240.458C296.376 253.76 305.575 264.997 277.794 278.214C250.012 291.432 259.667 299.621 259.667 299.621C259.667 299.621 310.9 351.972 308.07 335.212C305.24 318.451 310.367 293.144 356.301 291.22C376.087 290.391 406.384 280.964 413.093 259.8C414.656 254.872 415.742 247.345 414.554 242.244C412.905 235.168 408.257 229.594 405.676 222.934C399.661 207.415 414.748 196.05 423.431 185.676C427.965 180.261 432.495 174.708 435.965 168.533C443.173 155.713 440.474 141.966 432.626 130.149C428.862 124.483 423.633 118.471 421.991 111.711C420.228 104.451 421.765 94.5317 422.183 87.063C422.512 81.2049 423.071 75.3701 422.741 69.4972C422.129 58.5733 419.567 45.2284 410.668 37.874L410.669 37.8756Z" fill="#FFB978"/>
<mask id="mask0_90_7214" style="mask-type:luminance" maskUnits="userSpaceOnUse" x="258" y="30" width="183" height="309">
<path d="M410.669 37.8756C405.346 33.4759 397.271 31.0797 390.444 30.5958C342.057 27.1705 334.995 128.208 342.412 150.788C349.828 173.369 345.023 180.783 306.913 192.596C268.804 204.41 287.087 227.156 291.731 240.458C296.376 253.76 305.575 264.997 277.794 278.214C250.012 291.432 259.667 299.621 259.667 299.621C259.667 299.621 310.9 351.972 308.07 335.212C305.24 318.451 310.367 293.144 356.301 291.22C376.087 290.391 406.384 280.964 413.093 259.8C414.656 254.872 415.742 247.345 414.554 242.244C412.905 235.168 408.257 229.594 405.676 222.934C399.661 207.415 414.748 196.05 423.431 185.676C427.965 180.261 432.495 174.708 435.965 168.533C443.173 155.713 440.474 141.966 432.626 130.149C428.862 124.483 423.633 118.471 421.991 111.711C420.228 104.451 421.765 94.5317 422.183 87.063C422.512 81.2049 423.071 75.3701 422.741 69.4972C422.129 58.5733 419.567 45.2284 410.668 37.874L410.669 37.8756Z" fill="white"/>
</mask>
<g mask="url(#mask0_90_7214)">
<g style="mix-blend-mode:soft-light" opacity="0.8">
<path d="M255.638 329.004C255.306 329.123 254.929 328.983 254.762 328.663C254.579 328.313 254.714 327.881 255.064 327.698C255.279 327.586 276.848 316.252 300.908 297.586C323.079 280.387 351.962 253.268 363.655 221.741C373.423 195.41 382.329 151.88 388.094 102.315C393.263 57.869 394.079 24.9979 391.883 18.8963C391.748 18.5251 391.942 18.1158 392.314 17.9816C392.685 17.8474 393.095 18.0413 393.23 18.4125C395.799 25.5514 394.168 62.4775 389.517 102.481C383.741 152.155 374.804 195.805 364.999 222.238C353.184 254.088 324.093 281.416 301.768 298.731C277.608 317.47 255.945 328.852 255.729 328.964C255.699 328.979 255.669 328.993 255.639 329.004H255.638Z" fill="white"/>
<path d="M388.016 110.931C387.646 111.063 387.269 110.961 387.133 110.591C386.954 110.102 368.915 61.6224 345.655 50.677C345.296 50.5096 345.152 50.1053 345.32 49.7474C345.489 49.3894 345.919 49.2486 346.275 49.4159C370.068 60.6116 387.732 108.074 388.474 110.094C388.61 110.465 388.391 110.797 388.019 110.929C388.019 110.929 388.016 110.929 388.014 110.929L388.016 110.931Z" fill="white"/>
<path d="M379.22 167.153C378.945 167.252 378.623 167.174 378.426 166.934C378.175 166.629 378.218 166.178 378.524 165.928C378.656 165.819 391.937 154.936 408.324 145.804C430.465 133.465 447.433 130.019 458.757 135.566C459.112 135.74 459.258 136.167 459.083 136.522C458.909 136.877 458.481 137.022 458.126 136.848C432.072 124.088 379.955 166.599 379.433 167.03C379.368 167.085 379.295 167.124 379.22 167.151V167.153Z" fill="white"/>
<path d="M321.399 282.071C321.326 282.097 321.249 282.11 321.168 282.112C320.773 282.119 320.448 281.804 320.441 281.408C320.438 281.201 320.07 260.4 315.712 238.483C311.716 218.388 303.465 193.218 286.849 187.418C286.476 187.287 286.28 186.879 286.41 186.508C286.539 186.135 286.949 185.938 287.32 186.069C301.175 190.904 311.2 208.452 317.119 238.224C321.5 260.266 321.868 281.177 321.871 281.386C321.876 281.699 321.677 281.969 321.399 282.071Z" fill="white"/>
<path d="M350.965 248.465C350.675 248.57 350.339 248.477 350.147 248.217C349.911 247.899 349.979 247.451 350.296 247.217C352.6 245.516 406.952 205.6 428.147 209.411C428.537 209.481 428.794 209.854 428.724 210.242C428.655 210.631 428.283 210.89 427.893 210.818C407.298 207.115 351.706 247.953 351.147 248.366C351.089 248.409 351.028 248.44 350.963 248.464L350.965 248.465Z" fill="white"/>
</g>
</g>
<path d="M453.138 186.692C449.62 180.753 442.831 175.768 436.572 173.006C392.198 153.426 351.33 246.117 350.66 269.872C349.989 293.627 342.956 298.98 303.095 297.215C263.234 295.45 272.731 323.035 272.596 337.122C272.462 351.21 277.311 364.893 246.691 367.94C216.072 370.988 222.382 381.956 222.382 381.956C222.382 381.956 252.861 448.537 255.875 431.808C258.889 415.079 272.286 392.998 316.162 406.716C335.059 412.624 366.764 413.994 380.247 396.347C383.387 392.237 386.959 385.523 387.568 380.321C388.412 373.106 385.927 366.288 385.753 359.148C385.348 342.51 403.397 336.915 415.08 330.09C421.18 326.527 427.324 322.831 432.682 318.195C443.807 308.568 445.925 294.719 442.543 280.947C440.92 274.343 438.036 266.918 438.78 260.002C439.58 252.575 444.387 243.759 447.31 236.872C449.603 231.471 452.106 226.168 453.785 220.531C456.909 210.044 459.019 196.622 453.136 186.692H453.138Z" fill="url(#paint0_linear_90_7214)"/>
<mask id="mask1_90_7214" style="mask-type:luminance" maskUnits="userSpaceOnUse" x="221" y="170" width="236" height="265">
<path d="M453.138 186.692C449.62 180.753 442.831 175.768 436.572 173.006C392.198 153.426 351.33 246.117 350.66 269.872C349.989 293.627 342.956 298.98 303.095 297.215C263.234 295.45 272.731 323.035 272.596 337.122C272.462 351.21 277.311 364.893 246.691 367.94C216.072 370.988 222.382 381.956 222.382 381.956C222.382 381.956 252.861 448.537 255.875 431.808C258.889 415.079 272.286 392.998 316.162 406.716C335.059 412.624 366.764 413.994 380.247 396.347C383.387 392.237 386.959 385.523 387.568 380.321C388.412 373.106 385.927 366.288 385.753 359.148C385.348 342.51 403.397 336.915 415.08 330.09C421.18 326.527 427.324 322.831 432.682 318.195C443.807 308.568 445.925 294.719 442.543 280.947C440.92 274.343 438.036 266.918 438.78 260.002C439.58 252.575 444.387 243.759 447.31 236.872C449.603 231.471 452.106 226.168 453.785 220.531C456.909 210.044 459.019 196.622 453.136 186.692H453.138Z" fill="white"/>
</mask>
<g mask="url(#mask1_90_7214)">
<g style="mix-blend-mode:soft-light" opacity="0.8">
<path d="M208.639 408.242C208.287 408.242 207.98 407.982 207.93 407.624C207.877 407.233 208.151 406.872 208.542 406.819C208.783 406.785 232.918 403.411 261.882 393.979C288.57 385.289 324.935 369.531 346.619 343.817C364.728 322.341 387.855 284.391 410.067 239.697C429.985 199.621 441.888 168.964 441.888 162.479C441.888 162.085 442.208 161.765 442.603 161.765C442.997 161.765 443.318 162.085 443.318 162.479C443.318 170.066 429.275 204.263 411.348 240.334C389.086 285.125 365.891 323.179 347.712 344.739C325.806 370.716 289.174 386.598 262.3 395.346C233.218 404.813 208.977 408.201 208.735 408.234C208.702 408.239 208.668 408.24 208.637 408.24L208.639 408.242Z" fill="white"/>
<path d="M407.075 247.927C406.681 247.927 406.361 247.628 406.36 247.236C406.356 246.715 405.804 194.961 387.623 176.799C387.344 176.52 387.344 176.071 387.623 175.793C387.901 175.515 388.354 175.516 388.635 175.795C407.232 194.373 407.776 245.075 407.791 247.226C407.794 247.62 407.476 247.927 407.08 247.927H407.075Z" fill="white"/>
<path d="M379.755 297.712C379.461 297.712 379.186 297.53 379.081 297.238C378.948 296.867 379.141 296.458 379.514 296.324C379.675 296.266 395.859 290.514 414.373 287.459C439.388 283.332 456.522 285.827 465.301 294.874C465.576 295.157 465.568 295.609 465.284 295.884C465.001 296.159 464.548 296.151 464.272 295.868C444.077 275.054 380.635 297.44 379.997 297.669C379.917 297.697 379.836 297.711 379.756 297.711L379.755 297.712Z" fill="white"/>
<path d="M286.418 386.307C286.342 386.307 286.264 386.293 286.186 386.268C285.813 386.141 285.612 385.735 285.741 385.36C285.808 385.163 292.508 365.466 295.831 343.368C298.876 323.108 299.638 296.634 285.967 285.559C285.66 285.31 285.614 284.86 285.862 284.553C286.111 284.246 286.562 284.198 286.869 284.449C298.269 293.682 301.759 313.584 297.242 343.599C293.9 365.821 287.163 385.624 287.095 385.823C286.994 386.119 286.715 386.307 286.418 386.307Z" fill="white"/>
<path d="M325.622 364.677C325.314 364.677 325.03 364.477 324.937 364.169C324.823 363.791 325.038 363.391 325.417 363.279C328.16 362.457 392.827 343.267 411.481 354.019C411.822 354.216 411.94 354.653 411.743 354.995C411.545 355.336 411.107 355.454 410.766 355.257C392.639 344.81 326.493 364.449 325.828 364.648C325.76 364.667 325.69 364.677 325.622 364.677Z" fill="white"/>
</g>
</g>
<path d="M304.39 19.7134L303.88 23.369C302.182 23.4469 300.514 23.6657 298.89 24.0302L297.506 20.6198C297.13 19.6902 296.063 19.2477 295.126 19.6338L289.258 22.0483C288.319 22.4344 287.861 23.5049 288.236 24.4362L289.627 27.8897C288.205 28.7945 286.861 29.8186 285.61 30.9521L282.661 28.6686C281.865 28.0521 280.71 28.2046 280.081 29.01L276.14 34.0477C275.508 34.8547 275.642 36.0114 276.438 36.6295L279.396 38.9263C278.608 40.4045 277.946 41.9655 277.412 43.5945L273.658 43.1023C272.65 42.9697 271.711 43.684 271.561 44.6981L270.617 51.0516C270.467 52.0691 271.163 53.0037 272.174 53.1363L275.939 53.6301C275.984 55.3453 276.171 57.0322 276.505 58.6745L272.971 60.146C272.019 60.5421 271.551 61.6374 271.926 62.5903L274.28 68.566C274.657 69.5238 275.737 69.9762 276.692 69.5768L280.227 68.0986C281.116 69.5437 282.13 70.9058 283.255 72.1719L280.899 75.2277C280.262 76.0546 280.398 77.2378 281.204 77.8708L286.254 81.8281C287.062 82.4611 288.235 82.302 288.87 81.4718L291.197 78.4359C292.684 79.2264 294.256 79.8842 295.897 80.4096L295.368 84.1978C295.224 85.2352 295.932 86.1847 296.95 86.3173L303.325 87.1525C304.346 87.2867 305.286 86.5526 305.429 85.5152L305.943 81.7551C307.677 81.6806 309.38 81.4569 311.038 81.084L312.436 84.5574C312.824 85.5218 313.911 85.9776 314.863 85.5749L320.808 83.0577C321.757 82.655 322.212 81.5497 321.822 80.5885L320.423 77.14C321.875 76.2037 323.242 75.1415 324.509 73.9666L327.416 76.2236C328.228 76.855 329.393 76.6959 330.017 75.869L333.91 70.7119C334.532 69.8884 334.378 68.7134 333.567 68.0854L330.687 65.8549C331.472 64.3353 332.123 62.7295 332.641 61.0574L336.241 61.5297C337.251 61.6623 338.177 60.9414 338.308 59.9206L339.126 53.5506C339.257 52.5348 338.545 51.6034 337.536 51.4709L333.947 51.0002C333.872 49.2636 333.653 47.56 333.285 45.9045L336.614 44.5125C337.55 44.1214 337.993 43.041 337.604 42.0997L335.172 36.2268C334.784 35.2889 333.713 34.8448 332.777 35.2342L329.428 36.6295C328.515 35.1994 327.484 33.8505 326.337 32.6026L328.55 29.7176C329.166 28.9138 329.015 27.7654 328.215 27.1506L323.214 23.311C322.414 22.6979 321.268 22.8487 320.651 23.6491L318.425 26.5375C316.948 25.7719 315.389 25.1356 313.761 24.6318L314.257 21.0043C314.393 20.0067 313.695 19.0903 312.695 18.9594L306.446 18.1408C305.447 18.0098 304.523 18.7125 304.384 19.7101L304.39 19.7134ZM282.359 49.3249C284.165 36.7704 295.7 27.9693 308.133 29.5982C320.566 31.2272 329.298 42.6847 327.628 55.2558C325.947 67.9048 314.388 76.8782 301.819 75.2326C289.25 73.5854 280.541 61.9556 282.359 49.3249Z" fill="#D8DEE8"/>
<path d="M208.571 17.7314L207.781 23.3839C205.158 23.5032 202.577 23.8413 200.066 24.4047L197.927 19.1317C197.343 17.6933 195.696 17.0106 194.248 17.6071L185.176 21.3407C183.724 21.9389 183.016 23.5911 183.596 25.0344L185.746 30.3738C183.548 31.7724 181.47 33.355 179.537 35.1099L174.975 31.5785C173.746 30.6256 171.959 30.8626 170.987 32.1055L164.893 39.894C163.915 41.1419 164.123 42.9299 165.354 43.8861L169.927 47.439C168.71 49.7242 167.684 52.1387 166.858 54.6559L161.054 53.8952C159.496 53.6914 158.045 54.7951 157.811 56.3627L156.353 66.1879C156.119 67.7622 157.197 69.2056 158.76 69.4094L164.581 70.1717C164.65 72.8231 164.939 75.4331 165.457 77.9719L159.994 80.2471C158.521 80.8603 157.798 82.5522 158.378 84.0271L162.018 93.2656C162.6 94.7455 164.27 95.4464 165.747 94.8283L171.213 92.5431C172.586 94.777 174.154 96.8832 175.894 98.8403L172.253 103.565C171.268 104.844 171.478 106.674 172.726 107.651L180.534 113.769C181.783 114.749 183.596 114.502 184.58 113.219L188.178 108.526C190.476 109.749 192.909 110.767 195.446 111.579L194.626 117.437C194.402 119.041 195.497 120.509 197.075 120.715L206.932 122.005C208.508 122.213 209.964 121.077 210.183 119.473L210.979 113.66C213.66 113.546 216.294 113.199 218.856 112.623L221.017 117.994C221.618 119.485 223.298 120.189 224.77 119.566L233.963 115.675C235.431 115.054 236.133 113.344 235.529 111.855L233.366 106.523C235.61 105.076 237.724 103.432 239.684 101.616L244.177 105.106C245.432 106.082 247.232 105.835 248.198 104.559L254.218 96.5865C255.178 95.3139 254.941 93.496 253.687 92.5249L249.235 89.078C250.449 86.7265 251.456 84.2441 252.255 81.6607L257.823 82.3898C259.385 82.5953 260.817 81.48 261.019 79.9024L262.283 70.0524C262.486 68.4798 261.384 67.0414 259.826 66.8375L254.276 66.11C254.161 63.4255 253.823 60.7906 253.252 58.232L258.401 56.0794C259.85 55.4745 260.535 53.8041 259.931 52.3491L256.17 43.268C255.57 41.818 253.913 41.1319 252.468 41.7335L247.29 43.8894C245.88 41.6771 244.283 39.5924 242.513 37.6652L245.933 33.2042C246.886 31.963 246.653 30.1865 245.414 29.2353L237.681 23.2994C236.445 22.3515 234.671 22.5852 233.717 23.8231L230.275 28.2891C227.991 27.1059 225.581 26.1215 223.066 25.341L223.834 19.7316C224.045 18.1888 222.963 16.7736 221.419 16.5714L211.756 15.3054C210.211 15.1032 208.783 16.1886 208.567 17.7314H208.571ZM174.506 63.5166C177.298 44.1048 195.132 30.4964 214.355 33.0152C233.578 35.5341 247.08 53.249 244.498 72.6872C241.901 92.2432 224.03 106.12 204.596 103.573C185.162 101.026 171.697 83.0444 174.506 63.5166Z" fill="#D8DEE8"/>
<path d="M199.326 72.4667L157.064 423.373C156.431 428.635 160.06 433.351 165.146 433.855L341.172 453.161C351.955 453.83 357.859 448.327 358.526 442.732L402.896 69.6595C403.558 64.0965 398.268 59.0571 387.438 59.0571L209.811 62.794C204.669 62.8802 199.959 67.2318 199.329 72.4651L199.326 72.4667Z" fill="url(#paint1_linear_90_7214)"/>
<path d="M191.403 71.8638L148.909 424.525C148.272 429.813 151.915 434.554 157.018 435.061L339.507 453.212C345.228 453.781 350.472 449.646 351.141 444.023L395.759 69.0234C396.424 63.4306 392.223 58.9364 386.438 59.0342L201.925 62.1446C196.764 62.2308 192.035 66.6056 191.401 71.8654L191.403 71.8638Z" fill="url(#paint2_linear_90_7214)"/>
<path d="M194.865 91.3151L155.478 418.302C154.883 423.242 158.295 427.664 163.071 428.128L334.696 444.794C340.015 445.311 344.888 441.451 345.512 436.216L386.747 89.8038C387.367 84.597 383.465 80.3829 378.092 80.4409L204.705 82.2853C199.878 82.3367 195.456 86.4 194.863 91.3167L194.865 91.3151Z" fill="#D8DEE8"/>
<path d="M286.899 71.6199C286.674 73.4975 288.022 75.0005 289.913 74.9756C291.806 74.9524 293.525 73.408 293.75 71.5271C293.976 69.6463 292.622 68.1432 290.73 68.1714C288.838 68.1996 287.125 69.7424 286.901 71.6199H286.899Z" fill="url(#paint3_linear_90_7214)"/>
<g style="mix-blend-mode:soft-light">
<path d="M224.537 310.81C259.672 245.918 312.16 226.493 327.963 159.614C336.504 123.464 330.685 88.8626 320.883 60.1376L386.44 59.0323C392.224 58.9346 396.426 63.4304 395.761 69.0216L351.142 444.021C350.474 449.646 345.23 453.78 339.509 453.21L196.054 438.942C194.994 380.796 208.877 339.736 224.539 310.809L224.537 310.81Z" fill="white"/>
</g>
<path d="M18.1454 109.078C18.1454 74.5963 48.2556 46.6485 84.3891 46.6519C119.454 46.6552 147.128 73.133 147.128 105.79C147.128 138.448 119.454 166.336 84.3891 168.127C48.2556 169.973 18.1454 143.558 18.1454 109.078Z" fill="url(#paint4_linear_90_7214)"/>
<path d="M22.0404 106.329C22.0404 71.8471 51.2797 43.8994 86.3665 43.9027C120.416 43.906 147.29 70.3839 147.29 103.041C147.29 135.698 120.416 163.587 86.3665 165.378C51.278 167.224 22.0404 140.809 22.0404 106.329Z" fill="url(#paint5_linear_90_7214)"/>
<g style="mix-blend-mode:soft-light" opacity="0.5">
<path d="M32.0518 106.065C32.0518 77.0953 56.6163 53.6136 86.0961 53.6185C114.703 53.6218 137.282 75.8673 137.282 103.305C137.282 130.742 114.705 154.172 86.0961 155.677C56.6163 157.228 32.0518 135.036 32.0518 106.067V106.065Z" fill="white"/>
</g>
<g style="mix-blend-mode:soft-light" opacity="0.5">
<path d="M84.0657 58.0696C112.673 58.0729 135.252 80.3184 135.252 107.756C135.252 114.28 133.963 120.572 131.632 126.402C135.242 119.382 137.282 111.526 137.282 103.305C137.282 75.8673 114.705 53.6218 86.0961 53.6185C63.3596 53.6169 43.5594 67.5899 35.6847 87.2701C44.6028 69.9679 63.0843 58.0696 84.0657 58.0713V58.0696Z" fill="white"/>
</g>
<path d="M61.6526 98.9745V124.259C61.6526 131.569 67.8087 137.336 75.3798 137.138L94.1532 136.65C101.633 136.454 107.678 130.434 107.678 123.2V98.1824L61.6526 98.9762V98.9745ZM78.943 125.114L82.4316 114.553C80.937 113.783 79.9251 112.265 79.9251 110.497C79.9251 107.902 82.1048 105.756 84.7889 105.706C87.4696 105.654 89.6411 107.713 89.6411 110.303C89.6411 112.068 88.6325 113.624 87.1428 114.456L90.6181 124.842L78.943 125.114Z" fill="white"/>
<path d="M102.343 95.99C100.351 96.0232 98.7351 94.4837 98.7351 92.5498C98.7351 85.1175 92.4894 79.1518 84.7873 79.2512C77.0586 79.3507 70.7499 85.5169 70.7499 92.9956C70.7499 94.9411 69.1126 96.5452 67.0904 96.58C65.0666 96.6131 63.4243 95.062 63.4243 93.1132C63.4243 81.7303 73.0342 72.3608 84.7889 72.2299C96.4806 72.099 105.945 81.1636 105.945 92.4371C105.945 94.366 104.334 95.9585 102.343 95.9917V95.99Z" fill="white"/>
<path d="M145.824 240.206C145.824 240.206 144.547 235.424 145.452 234.201C146.358 232.978 151.889 228.089 151.358 229.683C150.825 231.278 150.027 232.34 150.027 232.34C150.027 232.34 153.007 233.722 151.091 235.793C149.176 237.866 148.536 238.344 148.43 240.205C148.324 242.064 147.101 242.702 145.824 240.205V240.206Z" fill="url(#paint6_linear_90_7214)"/>
<path d="M92.6802 446.648C92.6802 446.648 92.0034 450.784 92.0896 452.256C92.1759 453.727 108.529 454.48 108.693 453.378C108.859 452.274 105.991 450.521 103.972 449.903C101.953 449.283 96.0444 447.632 96.0444 447.632L92.6802 446.648Z" fill="#F98080"/>
<path d="M96.6498 442.525L96.129 447.669C96.129 447.669 94.2295 448.923 92.5557 447.955L91.718 442.358L96.6498 442.527V442.525Z" fill="url(#paint7_linear_90_7214)"/>
<path d="M63.5039 453.353C63.5039 453.353 62.8271 457.489 62.9134 458.961C62.9996 460.432 79.3528 461.184 79.517 460.082C79.6829 458.98 76.8147 457.226 74.7959 456.607C72.777 455.989 66.8681 454.337 66.8681 454.337L63.5039 453.353Z" fill="#F98080"/>
<path d="M67.4736 449.23L66.9527 454.374C66.9527 454.374 65.0533 455.628 63.3795 454.66L62.5417 449.062L67.4736 449.231V449.23Z" fill="url(#paint8_linear_90_7214)"/>
<path d="M93.6822 308.253C95.5716 312.081 97.4627 315.909 99.3522 319.737C100.872 341.583 101.628 365.34 101.142 390.746C100.78 409.647 99.7702 427.553 98.3171 444.359C95.7541 444.242 93.1911 444.124 90.6282 444.007C86.9223 436.659 82.5478 425.528 82.1447 411.787C81.725 397.454 86.0746 395.55 85.7992 381.827C85.4409 364.039 77.9743 359.295 73.9963 337.898C72.4752 329.715 71.4516 319.028 72.6676 306.063C79.6713 306.792 86.6751 307.523 93.6789 308.252L93.6822 308.253Z" fill="#441919"/>
<path style="mix-blend-mode:multiply" opacity="0.3" d="M72.6709 306.063C76.4531 306.457 80.2353 306.851 84.0192 307.246C90.8289 319.083 92.73 331.402 91.5339 336.852C89.8435 344.563 85.3712 347.032 85.6184 354.773C85.8622 362.432 90.3793 364.419 93.2442 373.445C95.2282 379.696 94.704 385.443 93.576 396.682C91.3033 419.32 85.8307 426.244 90.4142 433.666C91.7164 435.775 94.0637 438.286 98.6621 440.203C98.5493 441.592 98.4381 442.984 98.3204 444.358C95.7574 444.242 93.1944 444.123 90.6315 444.005C86.9256 436.657 82.5511 425.526 82.148 411.785C81.7283 397.452 86.0779 395.548 85.8025 381.826C85.4442 364.038 77.9776 359.293 73.9996 337.898C72.4785 329.715 71.4549 319.028 72.6709 306.063Z" fill="#441919"/>
<path d="M83.5132 315.145C79.9649 334.474 76.8313 355.16 74.3861 377.099C71.4333 403.589 69.8574 428.562 69.2386 451.747C66.4252 451.827 63.6134 451.906 60.7999 451.986C49.7154 430.08 49.0385 415.229 50.636 405.559C51.2515 401.834 52.9253 394.528 53.3068 383.607C53.5722 375.996 53.0862 370.202 52.479 363.239C51.1486 347.972 49.5329 344.639 49.3006 332.961C49.0817 322.001 49.0369 316.456 52.1688 313.22C60.4201 304.692 81.8859 314.391 83.5132 315.145Z" fill="#441919"/>
<path d="M144.352 239.469C146.224 239.338 148.093 239.208 149.964 239.078C154.377 256.894 151.212 274.174 141.252 280.529C125.69 290.459 96.7677 271.751 90.5005 251.38C87.7501 242.438 88.3755 229.536 93.8746 227.028C95.4008 226.332 97.7697 226.225 102.901 229.102C118.224 237.696 118.627 253.939 126.417 255.314C129.88 255.926 135.472 253.72 144.356 239.467L144.352 239.469Z" fill="#F98080"/>
<path d="M101.507 323.657C104.203 319.189 100.817 314.88 100.047 306.417C99.1746 296.824 102.874 295.227 106.532 279.33C108.965 268.757 111.299 258.607 108.512 246.725C107.177 241.031 104.911 231.374 96.9086 226.709C92.7797 224.301 87.1412 224.543 76.035 225.123C62.2996 225.84 55.4335 226.198 50.3109 228.893C49.5611 229.287 33.981 237.754 32.9077 251.554C31.8161 265.6 47.1275 267.488 49.1696 286.218C50.087 294.627 48.453 307.559 47.3929 315.946C46.3761 324 45.6744 326.061 47.2669 328.5C51.1022 334.378 62.842 332.703 86.3217 329.354C95.5317 328.04 99.4964 326.992 101.507 323.658V323.657Z" fill="#F98080"/>
<path d="M65.7816 283.204C64.788 286.855 61.2181 289.581 58.7331 298.461C58.1973 300.379 54.3736 314.032 59.3319 317.393C62.1951 319.333 64.7664 315.656 71.7171 315.175C83.7605 314.343 89.4985 324.455 97.3665 321.693C98.7318 321.212 100.533 320.192 102.333 317.845C102.692 319.96 102.63 321.797 101.509 323.658C99.4982 326.992 95.5335 328.04 86.3234 329.354C62.8438 332.703 51.1039 334.378 47.2686 328.5C45.6778 326.063 46.3778 324 47.3947 315.946C48.4547 307.557 50.0887 294.625 49.1713 286.218C47.1293 267.488 31.8162 265.6 32.9094 251.554C33.2014 247.799 34.5832 244.457 36.4329 241.545C55.8566 249.397 68.9036 271.732 65.7833 283.204H65.7816Z" fill="#F98080"/>
<path d="M41.2468 310.832L45.1336 313.311C45.8319 312.506 47.4477 310.882 49.9692 310.328C52.8108 309.703 56.0738 310.6 56.1485 311.505C56.2098 312.231 54.2225 312.963 53.9156 313.076C51.4356 313.99 49.5959 313.23 48.594 314.226C48.239 314.577 47.7977 315.233 46.7808 315.84C46.5137 315.999 46.2351 316.14 46.0874 316.198C44.4319 316.841 41.5935 313.962 41.3497 313.71L41.2468 310.83V310.832Z" fill="url(#paint9_linear_90_7214)"/>
<path d="M52.7296 259.915C55.5414 253.188 57.4889 242.889 53.0481 227.595C23.7889 239.112 8.86734 266.416 14.6933 288.058C19.4957 305.9 36.9703 314.59 40.8686 316.42C41.776 314.357 42.6834 312.295 43.5892 310.234C39.0721 305.209 33.981 297.779 34.701 289.299C35.6996 277.545 47.0363 273.531 52.7279 259.915H52.7296Z" fill="#F98080"/>
<path d="M75.3151 211.286C75.3151 211.286 75.0845 216.398 73.4953 220.228C72.0604 223.688 64.5075 225.864 62.9764 226.636C61.4452 227.408 65.8446 229.667 70.2622 230.109C74.6797 230.553 87.2938 229.551 89.5681 227.879C91.8424 226.207 87.74 226.332 84.5882 225.176C81.4347 224.019 79.6116 217.86 80.1689 215.064C80.7247 212.268 75.3151 211.286 75.3151 211.286Z" fill="url(#paint10_linear_90_7214)"/>
<path d="M82.3023 209.431C84.5949 207.181 84.915 206.919 85.1638 206.142C86.1658 203.022 83.7422 198.746 80.5638 197.694C80.3979 197.639 78.2663 196.958 77.4534 197.881C76.7617 198.665 77.7786 199.749 77.2958 201.262C76.8429 202.677 75.6154 202.783 73.3378 204.639C71.4616 206.167 70.297 207.118 70.0283 208.455C69.4742 211.211 72.8135 215.205 75.7697 215.097C76.833 215.057 77.1216 214.515 82.3023 209.431Z" fill="#5F2E1F"/>
<path d="M76.0599 215.523C76.0599 215.523 78.4968 218.279 82.2077 217.367C85.5304 216.552 84.6827 208.933 82.2508 207.716C81.4396 207.31 79.9649 207.343 78.8568 207.877C78.2015 208.192 78.019 208.52 76.9391 209.014C75.9438 209.469 75.6269 209.406 75.3599 209.728C75.0248 210.129 74.8804 210.994 75.9305 213.079C75.1741 212.543 74.3596 212.431 73.8602 212.785C73.7806 212.842 73.5782 213.041 73.4903 213.301C73.1735 214.245 74.1555 215.203 76.0599 215.523Z" fill="url(#paint11_linear_90_7214)"/>
<path d="M353.964 112.358L354.822 116.983L337.166 117.024L183.953 117.387C180.011 117.397 176.387 120.652 175.846 124.657L139.271 368.842C138.727 372.884 145.024 379.053 148.942 379.355L216.915 384.573V384.49L318.59 392.282H318.595L318.841 392.385C323.182 392.72 327.165 389.573 327.729 385.304C327.729 385.302 327.729 385.322 327.729 385.32L361.981 124.61C362.537 120.38 358.329 112.344 353.962 112.358H353.964Z" fill="url(#paint12_linear_90_7214)"/>
<path d="M324.265 380.223C323.705 384.494 319.723 387.685 315.382 387.352L145.308 374.307C141.391 374.007 138.666 370.487 139.21 366.446L172.459 119.664C172.998 115.659 176.622 112.404 180.56 112.392L351.595 111.922C355.96 111.91 359.055 115.329 358.501 119.558L324.267 380.223H324.265Z" fill="url(#paint13_linear_90_7214)"/>
<path d="M326.525 244.508C326.246 246.623 324.269 248.2 322.109 248.121L172.424 242.664C170.448 242.592 169.058 240.967 169.33 238.947L172.273 217.157C172.545 215.139 174.348 213.773 176.325 213.828L326.141 217.984C328.305 218.044 329.836 219.57 329.559 221.683L326.526 244.506L326.525 244.508Z" fill="white"/>
<path d="M320.727 288.782C320.448 290.9 318.469 292.71 316.309 292.602L166.737 285.221C164.763 285.123 163.389 283.236 163.662 281.214L166.628 259.003C166.9 256.983 168.719 255.251 170.695 255.331L320.359 261.361C322.518 261.449 324.046 263.401 323.768 265.517L320.727 288.784V288.782Z" fill="white"/>
<path style="mix-blend-mode:multiply" opacity="0.1" d="M329.569 221.595C329.214 221.481 328.832 221.418 328.426 221.406L178.606 217.251C176.631 217.195 174.826 218.564 174.557 220.577L171.609 242.367C171.603 242.423 171.598 242.477 171.593 242.533C170.073 242.105 169.096 240.667 169.325 238.943L172.273 217.154C172.541 215.14 174.346 213.77 176.322 213.828L326.141 217.982C328.266 218.045 329.791 219.523 329.569 221.595Z" fill="url(#paint14_linear_90_7214)"/>
<path style="mix-blend-mode:multiply" opacity="0.1" d="M323.801 265.027C323.441 264.884 323.053 264.798 322.641 264.782L172.981 258.75C171.005 258.67 169.182 260.405 168.914 262.425L165.943 284.638C165.926 284.78 165.914 284.918 165.914 285.06C164.395 284.57 163.429 282.937 163.658 281.214L166.629 259.002C166.898 256.981 168.719 255.246 170.697 255.326L320.357 261.358C322.356 261.444 323.807 263.11 323.801 265.027Z" fill="url(#paint15_linear_90_7214)"/>
<path d="M280.949 324.667C281.39 321.325 279.024 318.246 275.662 318.052L198.234 313.611C195.027 313.427 192.066 316.125 191.63 319.379L188.435 343.438C187.999 346.697 190.223 349.816 193.428 350.035L270.816 355.325C274.177 355.555 277.273 352.72 277.716 349.372L280.949 324.667Z" fill="url(#paint16_linear_90_7214)"/>
<path d="M286.796 162.577C285.776 170.268 281.821 177.21 276.198 182.316C270.138 187.822 262.155 191.173 253.854 191.012C245.595 190.853 238.643 187.249 234.179 181.62C230.061 176.431 228.044 169.517 229.054 161.956C231.156 146.225 245.625 133.508 261.502 133.546C277.528 133.584 288.915 146.579 286.795 162.579L286.796 162.577Z" fill="url(#paint17_linear_90_7214)"/>
<path d="M271.356 153.836C270.44 160.726 264.073 166.248 257.161 166.165C250.276 166.082 245.456 160.469 246.366 153.629C247.279 146.79 253.581 141.273 260.468 141.305C267.384 141.336 272.27 146.945 271.354 153.836H271.356Z" fill="white"/>
<path d="M276.198 182.316C270.138 187.822 262.155 191.173 253.854 191.012C245.595 190.853 238.643 187.249 234.179 181.62C239.288 174.509 247.715 169.779 256.665 169.895C265.662 170.013 272.915 174.993 276.198 182.316Z" fill="white"/>
<g style="mix-blend-mode:soft-light" opacity="0.4">
<path d="M358.499 119.558L324.265 380.223C323.704 384.492 319.469 387.665 315.13 387.332L212.981 379.497C208.129 374.534 204.133 368.578 201.281 361.431C199.881 357.926 198.856 354.145 198.174 350.168C196.278 339.161 197.013 326.649 199.778 314.368C201.905 304.914 205.239 295.581 209.508 287.16C212.922 280.427 216.936 274.27 221.42 269.097C224.648 265.373 228.14 261.756 231.823 258.208C236.264 253.926 240.983 249.746 245.852 245.605C257.197 235.949 269.345 226.508 280.592 216.539C306.543 193.541 327.598 167.844 322.532 131.178C322.369 130.023 320.788 121.179 318.768 112.011L351.341 111.922C355.704 111.91 359.055 115.329 358.499 119.556V119.558Z" fill="white"/>
</g>
</g>
<defs>
<linearGradient id="paint0_linear_90_7214" x1="221.845" y1="302.407" x2="456.86" y2="302.407" gradientUnits="userSpaceOnUse">
<stop stop-color="#FF9085"/>
<stop offset="1" stop-color="#FB6F6F"/>
</linearGradient>
<linearGradient id="paint1_linear_90_7214" x1="282.158" y1="247.062" x2="351.527" y2="254.637" gradientUnits="userSpaceOnUse">
<stop stop-color="#8C4444"/>
<stop offset="1" stop-color="#26264F"/>
</linearGradient>
<linearGradient id="paint2_linear_90_7214" x1="221.035" y1="72.3808" x2="392.24" y2="655.841" gradientUnits="userSpaceOnUse">
<stop stop-color="#68411C"/>
<stop offset="1" stop-color="#26264F"/>
</linearGradient>
<linearGradient id="paint3_linear_90_7214" x1="285.313" y1="58.0115" x2="486.543" y2="603.577" gradientUnits="userSpaceOnUse">
<stop stop-color="#FFC444"/>
<stop offset="1" stop-color="#F36F56"/>
</linearGradient>
<linearGradient id="paint4_linear_90_7214" x1="-1476" y1="1575.59" x2="-1338.24" y2="1445.55" gradientUnits="userSpaceOnUse">
<stop stop-color="#442E19"/>
<stop offset="1" stop-color="#893939"/>
</linearGradient>
<linearGradient id="paint5_linear_90_7214" x1="42.7564" y1="142.635" x2="153.151" y2="42.3497" gradientUnits="userSpaceOnUse">
<stop stop-color="#FF9085"/>
<stop offset="1" stop-color="#FBAA6F"/>
</linearGradient>
<linearGradient id="paint6_linear_90_7214" x1="154.71" y1="229.736" x2="132.837" y2="252.025" gradientUnits="userSpaceOnUse">
<stop stop-color="#FFC444"/>
<stop offset="1" stop-color="#F36F56"/>
</linearGradient>
<linearGradient id="paint7_linear_90_7214" x1="95.5153" y1="457.133" x2="93.1672" y2="431.609" gradientUnits="userSpaceOnUse">
<stop stop-color="#FFC444"/>
<stop offset="1" stop-color="#F36F56"/>
</linearGradient>
<linearGradient id="paint8_linear_90_7214" x1="65.9709" y1="459.851" x2="63.6227" y2="434.326" gradientUnits="userSpaceOnUse">
<stop stop-color="#FFC444"/>
<stop offset="1" stop-color="#F36F56"/>
</linearGradient>
<linearGradient id="paint9_linear_90_7214" x1="34.8834" y1="293.84" x2="52.0776" y2="317.092" gradientUnits="userSpaceOnUse">
<stop stop-color="#FFC444"/>
<stop offset="1" stop-color="#F36F56"/>
</linearGradient>
<linearGradient id="paint10_linear_90_7214" x1="83.7096" y1="235.926" x2="67.1559" y2="215.308" gradientUnits="userSpaceOnUse">
<stop stop-color="#FFC444"/>
<stop offset="1" stop-color="#F36F56"/>
</linearGradient>
<linearGradient id="paint11_linear_90_7214" x1="93.5083" y1="218.285" x2="68.8084" y2="207.279" gradientUnits="userSpaceOnUse">
<stop stop-color="#FFC444"/>
<stop offset="1" stop-color="#F36F56"/>
</linearGradient>
<linearGradient id="paint12_linear_90_7214" x1="139.238" y1="252.384" x2="362.033" y2="252.384" gradientUnits="userSpaceOnUse">
<stop stop-color="#311944"/>
<stop offset="1" stop-color="#893976"/>
</linearGradient>
<linearGradient id="paint13_linear_90_7214" x1="274.69" y1="690.125" x2="248.18" y2="230.444" gradientUnits="userSpaceOnUse">
<stop stop-color="#F36F56"/>
<stop offset="1" stop-color="#FFC444"/>
</linearGradient>
<linearGradient id="paint14_linear_90_7214" x1="169.292" y1="228.18" x2="329.59" y2="228.18" gradientUnits="userSpaceOnUse">
<stop stop-color="#F36F56"/>
<stop offset="1" stop-color="#FFC444"/>
</linearGradient>
<linearGradient id="paint15_linear_90_7214" x1="163.625" y1="270.192" x2="323.801" y2="270.192" gradientUnits="userSpaceOnUse">
<stop stop-color="#F36F56"/>
<stop offset="1" stop-color="#FFC444"/>
</linearGradient>
<linearGradient id="paint16_linear_90_7214" x1="242.355" y1="285.703" x2="206.623" y2="512.542" gradientUnits="userSpaceOnUse">
<stop stop-color="#F36F56"/>
<stop offset="1" stop-color="#FFC444"/>
</linearGradient>
<linearGradient id="paint17_linear_90_7214" x1="254.133" y1="49.5354" x2="261.765" y2="277.009" gradientUnits="userSpaceOnUse">
<stop stop-color="#F36F56"/>
<stop offset="1" stop-color="#FFC444"/>
</linearGradient>
<clipPath id="clip0_90_7214">
<rect width="465" height="464" fill="white" transform="translate(0.5)"/>
</clipPath>
</defs>
</svg>
