<svg width="205" height="58" viewBox="0 0 205 58" fill="none" xmlns="http://www.w3.org/2000/svg">
<path d="M21.375 9.5V26.125C21.375 27.3848 20.8746 28.593 19.9838 29.4838C19.093 30.3746 17.8848 30.875 16.625 30.875H4.75C3.49022 30.875 2.28204 30.3746 1.39124 29.4838C0.500445 28.593 0 27.3848 0 26.125V9.5C0 8.24022 0.500445 7.03204 1.39124 6.14124C2.28204 5.25044 3.49022 4.75 4.75 4.75H16.625C17.8848 4.75 19.093 5.25044 19.9838 6.14124C20.8746 7.03204 21.375 8.24022 21.375 9.5ZM42.75 26.125H30.875C29.6152 26.125 28.407 26.6254 27.5162 27.5162C26.6254 28.407 26.125 29.6152 26.125 30.875V47.5C26.125 48.7598 26.6254 49.968 27.5162 50.8588C28.407 51.7496 29.6152 52.25 30.875 52.25H42.75C44.0098 52.25 45.218 51.7496 46.1088 50.8588C46.9996 49.968 47.5 48.7598 47.5 47.5V30.875C47.5 29.6152 46.9996 28.407 46.1088 27.5162C45.218 26.6254 44.0098 26.125 42.75 26.125Z" fill="#F17751"/>
<path d="M47.5 9.5V16.625C47.5 17.8848 46.9996 19.093 46.1088 19.9838C45.218 20.8746 44.0098 21.375 42.75 21.375H30.875C29.6152 21.375 28.407 20.8746 27.5162 19.9838C26.6254 19.093 26.125 17.8848 26.125 16.625V9.5C26.125 8.24022 26.6254 7.03204 27.5162 6.14124C28.407 5.25044 29.6152 4.75 30.875 4.75H42.75C44.0098 4.75 45.218 5.25044 46.1088 6.14124C46.9996 7.03204 47.5 8.24022 47.5 9.5ZM16.625 35.625H4.75C3.49022 35.625 2.28204 36.1254 1.39124 37.0162C0.500445 37.907 0 39.1152 0 40.375V47.5C0 48.7598 0.500445 49.968 1.39124 50.8588C2.28204 51.7496 3.49022 52.25 4.75 52.25H16.625C17.8848 52.25 19.093 51.7496 19.9838 50.8588C20.8746 49.968 21.375 48.7598 21.375 47.5V40.375C21.375 39.1152 20.8746 37.907 19.9838 37.0162C19.093 36.1254 17.8848 35.625 16.625 35.625Z" fill="#FD3E3E"/>
<path d="M79.2578 57.7812C76.4193 57.7812 73.8021 57.0521 71.4062 55.5938C69.0365 54.1354 67.1354 52.1953 65.7031 49.7734C64.2969 47.3255 63.5938 44.6432 63.5938 41.7266V38.0547C63.5938 37.7682 63.724 37.625 63.9844 37.625H72.9688C73.1771 37.625 73.2812 37.7682 73.2812 38.0547V41.7266C73.2812 43.4714 73.8672 44.9818 75.0391 46.2578C76.2109 47.5078 77.6172 48.1328 79.2578 48.1328C80.9245 48.1328 82.3438 47.4948 83.5156 46.2188C84.6875 44.9167 85.2734 43.4193 85.2734 41.7266C85.2734 39.7734 83.9974 38.0677 81.4453 36.6094C81.0286 36.349 80.4818 36.0365 79.8047 35.6719C79.1536 35.2812 78.3724 34.8385 77.4609 34.3438C76.5495 33.849 75.6641 33.3672 74.8047 32.8984C73.9453 32.4036 73.112 31.9349 72.3047 31.4922C69.388 29.7734 67.2135 27.625 65.7812 25.0469C64.375 22.4427 63.6719 19.526 63.6719 16.2969C63.6719 13.3281 64.401 10.6458 65.8594 8.25C67.3177 5.88021 69.2188 4.00521 71.5625 2.625C73.9323 1.21875 76.4974 0.515625 79.2578 0.515625C82.0964 0.515625 84.7005 1.21875 87.0703 2.625C89.4401 4.05729 91.3281 5.95833 92.7344 8.32812C94.1667 10.6979 94.8828 13.3542 94.8828 16.2969V22.8594C94.8828 23.0677 94.7786 23.1719 94.5703 23.1719H85.5859C85.3776 23.1719 85.2734 23.0677 85.2734 22.8594L85.1953 16.2969C85.1953 14.4219 84.6094 12.8984 83.4375 11.7266C82.2656 10.5547 80.8724 9.96875 79.2578 9.96875C77.6172 9.96875 76.2109 10.5938 75.0391 11.8438C73.8672 13.0938 73.2812 14.5781 73.2812 16.2969C73.2812 18.0417 73.6458 19.5 74.375 20.6719C75.1302 21.8438 76.4974 22.9635 78.4766 24.0312C78.6849 24.1354 79.1667 24.3958 79.9219 24.8125C80.6771 25.2292 81.5104 25.6979 82.4219 26.2188C83.3594 26.7135 84.2057 27.1693 84.9609 27.5859C85.7161 27.9766 86.1719 28.2109 86.3281 28.2891C88.9844 29.7734 91.0807 31.5964 92.6172 33.7578C94.1797 35.9193 94.9609 38.5755 94.9609 41.7266C94.9609 44.7734 94.2578 47.5078 92.8516 49.9297C91.4193 52.3516 89.5182 54.2656 87.1484 55.6719C84.7786 57.0781 82.1484 57.7812 79.2578 57.7812ZM113.634 57.7812C110.744 57.7812 108.101 57.0521 105.705 55.5938C103.335 54.1354 101.447 52.1823 100.041 49.7344C98.6604 47.2604 97.9703 44.513 97.9703 41.4922L98.0484 16.5312C98.0484 13.5625 98.7255 10.8802 100.08 8.48438C101.434 6.0625 103.296 4.1224 105.666 2.66406C108.061 1.17969 110.718 0.4375 113.634 0.4375C116.603 0.4375 119.246 1.15365 121.564 2.58594C123.908 4.01823 125.77 5.95833 127.15 8.40625C128.556 10.8281 129.259 13.5365 129.259 16.5312V20.2031C129.259 20.4115 129.155 20.5156 128.947 20.5156H119.963C119.754 20.5156 119.65 20.4115 119.65 20.2031V16.5312C119.65 14.7604 119.077 13.237 117.931 11.9609C116.785 10.6849 115.353 10.0469 113.634 10.0469C111.733 10.0469 110.275 10.6979 109.259 12C108.244 13.3021 107.736 14.8125 107.736 16.5312V41.4922C107.736 43.4453 108.309 45.0469 109.455 46.2969C110.601 47.5208 111.994 48.1328 113.634 48.1328C115.353 48.1328 116.785 47.4557 117.931 46.1016C119.077 44.7214 119.65 43.1849 119.65 41.4922V37.7812C119.65 37.5729 119.754 37.4688 119.963 37.4688H129.025C129.233 37.4688 129.338 37.5729 129.338 37.7812V41.4922C129.338 44.487 128.634 47.2214 127.228 49.6953C125.796 52.1432 123.908 54.1094 121.564 55.5938C119.22 57.0521 116.577 57.7812 113.634 57.7812ZM142.933 57H133.87C133.662 57 133.558 56.8698 133.558 56.6094L133.636 1.64844C133.636 1.4401 133.766 1.33594 134.027 1.33594H142.933C143.193 1.33594 143.323 1.4401 143.323 1.64844L143.245 23.4062H155.238V1.64844C155.238 1.4401 155.342 1.33594 155.55 1.33594H164.456C164.717 1.33594 164.847 1.4401 164.847 1.64844L165.003 56.6094C165.003 56.8698 164.873 57 164.613 57H155.628C155.368 57 155.238 56.8698 155.238 56.6094V33.0938H143.245V56.6094C143.245 56.8698 143.141 57 142.933 57ZM184.653 56.9219L170.317 57C170.057 57 169.927 56.8698 169.927 56.6094L170.083 1.64844C170.083 1.4401 170.187 1.33594 170.395 1.33594L185.356 1.25781C188.325 1.17969 191.007 1.85677 193.403 3.28906C195.825 4.72135 197.752 6.66146 199.184 9.10938C200.643 11.5312 201.372 14.2135 201.372 17.1562V40.125C201.372 43.1979 200.63 46.0104 199.145 48.5625C197.635 51.0885 195.63 53.1068 193.13 54.6172C190.63 56.1016 187.804 56.8698 184.653 56.9219ZM185.356 10.8281L179.77 10.9062L179.692 47.1562H184.653C186.632 47.1562 188.299 46.4661 189.653 45.0859C191.007 43.7057 191.684 42.0521 191.684 40.125V17.0781C191.684 15.3854 191.059 13.9141 189.809 12.6641C188.559 11.388 187.075 10.776 185.356 10.8281Z" fill="white"/>
</svg>
