<svg xmlns="http://www.w3.org/2000/svg" width="32" height="32" viewBox="0 0 32 32" fill="none">
<path d="M31.5997 10.9754C30.7299 5.55985 26.4401 1.2701 21.0245 0.400294C19.3886 0.137568 17.7109 0 16 0C14.2891 0 12.6114 0.137525 10.9755 0.400294C5.55989 1.2701 1.2701 5.55985 0.400287 10.9754C0.137562 12.6113 0 14.289 0 16C0 17.7109 0.137518 19.3887 0.400287 21.0246C1.2701 26.4402 5.55993 30.7299 10.9755 31.5997C12.6114 31.8624 14.2891 32 16 32C17.7109 32 19.3886 31.8625 21.0245 31.5997C26.4401 30.7299 30.7299 26.4402 31.5997 21.0246C31.8624 19.3887 32 17.7109 32 16C32 14.289 31.8625 12.6113 31.5997 10.9754Z" fill="#0B5CFF"/>
<path d="M25.5001 26.0001H9.30141C8.16488 26.0001 7.14944 25.3215 6.71452 24.2715C6.2796 23.2215 6.51788 22.0237 7.32156 21.2202L18.5417 10H10.5C8.29084 10 6.5 8.20917 6.5 6H21.4387C22.5752 6 23.5905 6.67832 24.0255 7.72832C24.4605 8.77833 24.2224 9.97597 23.4188 10.7799L12.1986 22H21.5C23.7092 22 25.5 23.7909 25.5 26.0001H25.5001Z" fill="white"/>
</svg>