<svg width="1137" height="1145" viewBox="0 0 1137 1145" fill="none" xmlns="http://www.w3.org/2000/svg">
<path d="M160.631 423.34C-23.1028 892.282 901.897 179.782 886.631 807.34" stroke="#4B4B4B"/>
<path d="M166.631 412.34C-17.1028 881.282 907.897 168.782 892.631 796.34" stroke="#4B4B4B"/>
<path d="M172.631 401.34C-11.1028 870.282 913.897 157.782 898.631 785.34" stroke="#4B4B4B"/>
<path d="M178.631 390.34C-5.10284 859.282 919.897 146.782 904.631 774.34" stroke="#4B4B4B"/>
<path d="M184.631 379.34C0.89716 848.282 925.897 135.782 910.631 763.34" stroke="#4B4B4B"/>
<path d="M190.631 368.34C6.89716 837.282 931.897 124.782 916.631 752.34" stroke="#4B4B4B"/>
<path d="M196.631 357.34C12.8972 826.282 937.897 113.782 922.631 741.34" stroke="#4B4B4B"/>
<path d="M202.631 346.34C18.8972 815.282 943.897 102.782 928.631 730.34" stroke="#4B4B4B"/>
<path d="M208.631 335.34C24.8972 804.282 949.897 91.7818 934.631 719.34" stroke="#4B4B4B"/>
<path d="M214.631 324.34C30.8972 793.282 955.897 80.7818 940.631 708.34" stroke="#4B4B4B"/>
<path d="M220.631 313.34C36.8972 782.282 961.897 69.7818 946.631 697.34" stroke="#4B4B4B"/>
<path d="M226.631 302.34C42.8972 771.282 967.897 58.7818 952.631 686.34" stroke="#4B4B4B"/>
<path d="M232.631 291.34C48.8972 760.282 973.897 47.7818 958.631 675.34" stroke="#4B4B4B"/>
<path d="M238.631 280.34C54.8972 749.282 979.897 36.7818 964.631 664.34" stroke="#4B4B4B"/>
<path d="M244.631 269.34C60.8972 738.282 985.897 25.7818 970.631 653.34" stroke="#4B4B4B"/>
<path d="M250.631 258.34C66.8972 727.282 991.897 14.7818 976.631 642.34" stroke="#4B4B4B"/>
<path d="M256.631 247.34C72.8972 716.282 997.897 3.78183 982.631 631.34" stroke="#4B4B4B"/>
<path d="M256.631 247.34C72.8972 716.282 997.897 3.78183 982.631 631.34" stroke="#4B4B4B"/>
<path d="M782.653 371.956C923.452 521.357 942.228 732.049 824.942 842.581C707.657 953.113 498.448 921.89 357.649 772.489C216.85 623.088 198.074 412.396 315.359 301.864C432.645 191.332 641.854 222.555 782.653 371.956Z" stroke="#454545"/>
<path d="M826.081 328.949C997.007 510.318 1019.83 766.129 877.408 900.351C734.986 1034.57 480.976 996.638 310.049 815.268C139.123 633.899 116.301 378.088 258.723 243.867C401.144 109.645 655.154 147.579 826.081 328.949Z" stroke="#454545"/>
<g clip-path="url(#clip0_167_3867)">
<path d="M388.467 622.694C430.395 720.255 541.072 762.16 627.79 755.015C651.467 753.064 699.106 749.14 736.304 714.121C807.738 646.872 796.736 506.301 728.353 423.541C719.547 412.885 658.59 341.479 563.602 342.434C494.055 343.133 445.242 382.242 439.306 387.114C431.809 393.269 415.27 407.895 400.366 431.098C365.345 485.618 362.266 561.728 388.467 622.694Z" fill="url(#paint0_linear_167_3867)"/>
<g opacity="0.3">
<path d="M471.666 378.067C471.112 378.703 470.147 378.769 469.511 378.215C468.275 377.139 466.975 376.101 465.645 375.129C464.973 374.638 464.82 373.699 465.297 373.021C465.303 373.013 465.309 373.004 465.313 372.997C465.811 372.316 466.768 372.168 467.449 372.667C468.849 373.69 470.218 374.783 471.518 375.916C472.113 376.434 472.209 377.31 471.765 377.942C471.735 377.985 471.702 378.029 471.666 378.069V378.067ZM458.847 370.842C457.397 370.061 455.902 369.334 454.398 368.682C453.625 368.346 453.27 367.447 453.606 366.673C453.947 365.899 454.842 365.546 455.616 365.882C457.197 366.569 458.772 367.333 460.298 368.155C461.041 368.555 461.317 369.481 460.917 370.223C460.888 370.276 460.856 370.329 460.821 370.376C460.382 371 459.536 371.213 458.847 370.841V370.842ZM446.824 366.003C445.242 365.564 443.62 365.191 442.006 364.889C441.177 364.735 440.63 363.938 440.785 363.109C440.941 362.282 441.737 361.734 442.567 361.89C444.267 362.206 445.975 362.602 447.642 363.063C448.455 363.289 448.931 364.129 448.706 364.941C448.658 365.115 448.582 365.273 448.485 365.412C448.124 365.925 447.465 366.182 446.826 366.005L446.824 366.003ZM434.02 363.972C432.378 363.898 430.713 363.895 429.072 363.962C428.229 363.996 427.518 363.341 427.483 362.499C427.45 361.657 428.105 360.947 428.948 360.912C430.675 360.841 432.428 360.844 434.157 360.922C435 360.959 435.653 361.673 435.614 362.515C435.601 362.817 435.501 363.093 435.34 363.323C435.05 363.735 434.562 363.995 434.02 363.971V363.972ZM421.083 364.841C419.469 365.133 417.844 365.498 416.254 365.927C415.44 366.146 414.601 365.664 414.381 364.85C414.162 364.037 414.645 363.199 415.459 362.98C417.131 362.529 418.841 362.145 420.539 361.837C421.368 361.687 422.163 362.237 422.314 363.068C422.39 363.486 422.287 363.895 422.061 364.217C421.839 364.534 421.495 364.767 421.084 364.841H421.083ZM408.659 368.549C407.147 369.191 405.645 369.906 404.192 370.674C403.447 371.068 402.522 370.784 402.129 370.039C401.734 369.294 402.018 368.371 402.764 367.975C404.293 367.166 405.874 366.415 407.465 365.739C408.242 365.409 409.139 365.77 409.469 366.547C409.683 367.05 409.605 367.605 409.312 368.022C409.154 368.247 408.933 368.432 408.661 368.547L408.659 368.549ZM372.624 412.312C371.794 412.156 371.249 411.357 371.404 410.53C371.724 408.834 372.123 407.128 372.588 405.46C372.815 404.647 373.658 404.174 374.469 404.401C375.281 404.628 375.756 405.469 375.529 406.281C375.087 407.864 374.709 409.484 374.405 411.095C374.363 411.316 374.277 411.516 374.154 411.689C373.821 412.164 373.229 412.427 372.621 412.312H372.624ZM397.378 374.912C396.048 375.874 394.743 376.904 393.5 377.976C392.862 378.527 391.896 378.456 391.345 377.818C390.793 377.18 390.866 376.219 391.503 375.665C392.812 374.536 394.186 373.451 395.587 372.438C396.27 371.944 397.225 372.098 397.72 372.78C398.112 373.322 398.097 374.034 397.732 374.553C397.638 374.687 397.518 374.809 397.376 374.911L397.378 374.912ZM376.215 399.505C375.442 399.168 375.09 398.269 375.427 397.496C376.119 395.914 376.889 394.341 377.714 392.819C378.113 392.076 379.042 391.804 379.785 392.204C380.526 392.606 380.801 393.531 380.401 394.273C379.616 395.719 378.886 397.213 378.228 398.717C378.186 398.812 378.135 398.902 378.077 398.984C377.668 399.565 376.893 399.799 376.216 399.504L376.215 399.505ZM387.8 383.635C386.719 384.868 385.678 386.166 384.703 387.49C384.204 388.17 383.248 388.316 382.568 387.817C381.897 387.325 381.746 386.388 382.223 385.711C382.229 385.702 382.235 385.693 382.242 385.684C383.266 384.289 384.363 382.924 385.5 381.625C386.056 380.991 387.021 380.927 387.656 381.482C388.25 382 388.344 382.877 387.902 383.507C387.87 383.551 387.836 383.593 387.8 383.635Z" fill="#D37232"/>
<path d="M373.135 422.357C373.308 422.111 373.41 421.812 373.412 421.488C373.415 420.701 373.436 419.901 373.471 419.111C373.51 418.269 372.857 417.555 372.016 417.518C371.173 417.479 370.457 418.13 370.421 418.974C370.382 419.805 370.361 420.646 370.357 421.475C370.352 422.317 371.034 423.004 371.877 423.008C372.397 423.011 372.857 422.753 373.135 422.359V422.357Z" fill="#D37232"/>
</g>
<g opacity="0.3">
<path d="M391.11 465.278C391.535 464.675 391.47 463.837 390.925 463.307C390.36 462.759 389.798 462.189 389.253 461.614C388.673 461.002 387.706 460.975 387.093 461.556C386.478 462.138 386.455 463.101 387.035 463.713C387.609 464.318 388.201 464.918 388.795 465.496C389.401 466.083 390.368 466.069 390.955 465.466C391.013 465.406 391.064 465.344 391.11 465.278Z" fill="#D37232"/>
<path d="M479.466 459.334C478.948 459.998 477.988 460.118 477.322 459.6C476.657 459.081 476.537 458.124 477.056 457.458C478.042 456.192 478.989 454.865 479.885 453.497C480.342 452.794 481.292 452.594 481.999 453.055C482.705 453.517 482.903 454.462 482.442 455.168C482.054 455.761 481.658 456.345 481.253 456.918C480.677 457.738 480.076 458.55 479.465 459.334H479.466ZM484.478 448.637C483.716 448.276 483.392 447.365 483.754 446.605C484.449 445.143 485.088 443.637 485.656 442.126C485.95 441.337 486.834 440.937 487.623 441.233C488.412 441.529 488.812 442.41 488.515 443.198C487.917 444.788 487.243 446.374 486.512 447.913C486.475 447.992 486.43 448.068 486.381 448.137C485.961 448.734 485.16 448.96 484.477 448.637H484.478ZM473.916 465.53C472.698 466.714 471.414 467.864 470.096 468.945C469.444 469.479 468.482 469.385 467.945 468.734C467.41 468.083 467.506 467.122 468.156 466.586C469.407 465.56 470.628 464.469 471.783 463.344C472.388 462.756 473.355 462.769 473.944 463.373C474.464 463.907 474.515 464.724 474.101 465.314C474.047 465.39 473.986 465.463 473.916 465.532V465.53ZM489.077 436.382C488.253 436.197 487.736 435.38 487.923 434.557C488.279 432.981 488.572 431.371 488.793 429.772C488.908 428.936 489.679 428.353 490.514 428.468C491.35 428.583 491.934 429.354 491.818 430.188C491.584 431.873 491.277 433.569 490.903 435.228C490.858 435.428 490.775 435.611 490.664 435.77C490.319 436.261 489.7 436.521 489.077 436.38V436.382ZM463.322 473.765C461.874 474.651 460.369 475.491 458.846 476.255C458.093 476.634 457.175 476.331 456.795 475.579C456.416 474.826 456.719 473.908 457.474 473.529C458.921 472.802 460.351 472.006 461.726 471.164C462.444 470.723 463.386 470.949 463.827 471.667C464.156 472.203 464.114 472.86 463.774 473.344C463.658 473.509 463.507 473.654 463.323 473.766L463.322 473.765ZM451.176 479.477C449.565 480.028 447.912 480.518 446.264 480.933C445.445 481.139 444.616 480.643 444.41 479.825C444.203 479.007 444.699 478.178 445.518 477.974C447.085 477.579 448.655 477.114 450.186 476.591C450.984 476.318 451.852 476.743 452.125 477.541C452.29 478.021 452.2 478.528 451.93 478.913C451.75 479.168 451.492 479.37 451.175 479.479L451.176 479.477ZM438.073 482.41C436.38 482.598 434.66 482.716 432.961 482.762C432.118 482.784 431.415 482.12 431.393 481.278C431.371 480.434 432.036 479.734 432.878 479.712C434.492 479.668 436.127 479.555 437.737 479.377C438.575 479.285 439.33 479.888 439.423 480.725C439.466 481.111 439.361 481.476 439.155 481.771C438.911 482.117 438.527 482.36 438.073 482.411V482.41ZM424.641 482.417C422.948 482.23 421.243 481.969 419.573 481.641C418.745 481.478 418.207 480.676 418.37 479.849C418.533 479.023 419.337 478.484 420.164 478.647C421.748 478.959 423.368 479.207 424.976 479.385C425.814 479.477 426.419 480.231 426.327 481.069C426.297 481.333 426.203 481.575 426.059 481.778C425.75 482.219 425.215 482.481 424.641 482.419V482.417ZM411.529 479.474C409.922 478.92 408.319 478.292 406.76 477.603C405.989 477.263 405.639 476.361 405.981 475.591C406.322 474.822 407.225 474.471 407.996 474.813C409.475 475.467 411 476.065 412.526 476.591C413.322 476.866 413.747 477.735 413.472 478.531C413.424 478.669 413.358 478.796 413.277 478.911C412.896 479.453 412.188 479.703 411.529 479.476V479.474ZM399.397 473.732C398.33 473.076 397.27 472.379 396.248 471.661C395.878 471.401 395.511 471.137 395.148 470.871C394.47 470.372 394.304 469.415 394.824 468.737C395.323 468.058 396.28 467.913 396.96 468.412C397.305 468.666 397.653 468.917 398.004 469.163C398.977 469.845 399.983 470.508 400.998 471.131C401.716 471.573 401.941 472.512 401.498 473.23C401.482 473.257 401.464 473.284 401.446 473.309C400.986 473.965 400.087 474.156 399.397 473.73V473.732Z" fill="#D37232"/>
<path d="M492.11 422.727C492.285 422.48 492.387 422.176 492.388 421.851C492.388 421.025 492.371 420.183 492.336 419.349C492.302 418.506 491.59 417.852 490.748 417.887C489.905 417.923 489.25 418.632 489.284 419.474C489.317 420.267 489.334 421.066 489.334 421.851C489.334 422.693 490.017 423.377 490.861 423.377C491.378 423.377 491.836 423.12 492.112 422.727H492.11Z" fill="#D37232"/>
</g>
<g opacity="0.3">
<path d="M534.668 358.452C534.902 358.12 534.901 357.658 534.633 357.324C534.134 356.698 533.609 356.078 533.073 355.483C532.725 355.096 532.128 355.065 531.74 355.413C531.351 355.759 531.321 356.356 531.67 356.743C532.181 357.31 532.681 357.9 533.157 358.497C533.481 358.905 534.074 358.971 534.482 358.647C534.554 358.588 534.615 358.523 534.666 358.451L534.668 358.452Z" fill="#D37232"/>
<path d="M529.585 353.297C529.243 353.689 528.648 353.733 528.253 353.391C527.26 352.531 526.211 351.711 525.135 350.956C524.907 350.796 524.679 350.639 524.446 350.484C524.014 350.194 523.899 349.607 524.189 349.176C524.48 348.779 525.066 348.629 525.498 348.919C525.74 349.082 525.98 349.246 526.218 349.413C527.346 350.205 528.446 351.065 529.488 351.966C529.857 352.286 529.917 352.829 529.642 353.219C529.624 353.245 529.603 353.27 529.582 353.295L529.585 353.297ZM520.315 348.062C518.894 347.341 517.414 346.702 515.918 346.161C515.428 345.984 515.174 345.445 515.352 344.955C515.528 344.468 516.069 344.211 516.559 344.389C518.127 344.955 519.677 345.625 521.168 346.381C521.633 346.617 521.818 347.184 521.582 347.648C521.561 347.689 521.537 347.728 521.512 347.765C521.246 348.143 520.738 348.277 520.313 348.062H520.315ZM511.32 344.819C509.767 344.468 508.176 344.213 506.59 344.056C506.071 344.005 505.693 343.544 505.744 343.026C505.795 342.506 506.255 342.128 506.775 342.179C508.439 342.342 510.108 342.612 511.735 342.978C512.244 343.093 512.563 343.598 512.448 344.105C512.42 344.229 512.369 344.341 512.3 344.44C512.087 344.743 511.704 344.904 511.32 344.817V344.819ZM501.802 343.884C500.207 343.925 498.602 344.065 497.03 344.301C496.515 344.379 496.033 344.023 495.957 343.508C495.881 342.994 496.234 342.514 496.749 342.436C498.398 342.188 500.082 342.042 501.753 341.999C502.273 341.985 502.706 342.397 502.719 342.917C502.724 343.126 502.661 343.321 502.549 343.481C502.383 343.717 502.111 343.874 501.8 343.883L501.802 343.884ZM492.344 345.3C490.809 345.727 489.286 346.252 487.815 346.862C487.334 347.062 486.783 346.833 486.582 346.352C486.382 345.872 486.609 345.319 487.092 345.121C488.631 344.482 490.229 343.931 491.837 343.483C492.339 343.344 492.859 343.636 492.998 344.138C493.077 344.422 493.018 344.71 492.861 344.934C492.74 345.106 492.56 345.239 492.342 345.3H492.344ZM483.516 348.965C482.132 349.752 480.784 350.632 479.511 351.581C479.094 351.892 478.502 351.807 478.191 351.39C477.88 350.974 477.966 350.384 478.382 350.07C479.719 349.074 481.132 348.152 482.583 347.326C483.036 347.069 483.612 347.227 483.87 347.68C484.057 348.007 484.025 348.399 483.822 348.688C483.745 348.798 483.643 348.894 483.517 348.965H483.516ZM475.857 354.675C474.712 355.772 473.621 356.958 472.614 358.197C472.285 358.6 471.69 358.663 471.287 358.335C470.882 358.008 470.827 357.418 471.149 357.009C472.206 355.711 473.349 354.469 474.551 353.316C474.927 352.956 475.524 352.968 475.885 353.343C476.202 353.673 476.23 354.175 475.976 354.538C475.942 354.587 475.903 354.633 475.857 354.676V354.675ZM466.286 366.753C465.814 366.533 465.611 365.972 465.831 365.5C466.44 364.193 467.132 362.899 467.886 361.655C467.999 361.466 468.114 361.279 468.231 361.091C468.494 360.644 469.09 360.516 469.531 360.794C469.972 361.07 470.105 361.652 469.828 362.093C469.718 362.267 469.61 362.444 469.501 362.624C468.781 363.816 468.12 365.05 467.539 366.296C467.515 366.346 467.487 366.396 467.455 366.439C467.197 366.806 466.705 366.947 466.285 366.75L466.286 366.753Z" fill="#D37232"/>
</g>
<g opacity="0.3">
<path d="M535.77 406.569C534.808 407.901 533.754 409.185 532.643 410.387C532.288 410.769 531.692 410.792 531.31 410.439C530.927 410.085 530.911 409.49 531.257 409.107C532.318 407.962 533.323 406.736 534.24 405.466C534.545 405.043 535.135 404.949 535.557 405.254C535.975 405.557 536.072 406.139 535.776 406.56C535.773 406.563 535.772 406.568 535.769 406.571L535.77 406.569ZM537.135 402.768C536.679 402.515 536.515 401.942 536.767 401.487C537.526 400.116 538.209 398.687 538.798 397.236C538.994 396.756 539.544 396.521 540.028 396.718C540.511 396.913 540.742 397.463 540.548 397.945C539.931 399.465 539.215 400.963 538.419 402.399C538.402 402.429 538.384 402.457 538.365 402.486C538.091 402.874 537.564 403.002 537.136 402.766L537.135 402.768ZM529.069 413.799C527.813 414.859 526.48 415.852 525.109 416.749C524.673 417.034 524.088 416.912 523.803 416.477C523.518 416.041 523.639 415.461 524.075 415.172C525.383 414.317 526.653 413.37 527.853 412.359C528.252 412.023 528.847 412.074 529.182 412.471C529.464 412.806 529.473 413.279 529.232 413.621C529.187 413.685 529.132 413.746 529.068 413.8L529.069 413.799ZM540.964 393.929C540.46 393.794 540.163 393.276 540.297 392.773C540.704 391.26 541.022 389.709 541.242 388.161C541.315 387.646 541.793 387.287 542.307 387.359C542.823 387.432 543.183 387.908 543.11 388.425C542.88 390.049 542.546 391.678 542.12 393.263C542.09 393.372 542.043 393.472 541.981 393.56C541.76 393.875 541.358 394.033 540.965 393.929H540.964ZM520.822 419.195C519.35 419.92 517.818 420.564 516.268 421.106C515.776 421.278 515.238 421.019 515.065 420.528C514.893 420.037 515.15 419.498 515.643 419.326C517.121 418.81 518.583 418.196 519.986 417.503C520.454 417.273 521.019 417.464 521.251 417.932C521.409 418.251 521.369 418.618 521.176 418.892C521.088 419.016 520.968 419.122 520.822 419.195ZM511.517 422.457C509.911 422.81 508.268 423.068 506.636 423.226C506.118 423.277 505.658 422.898 505.607 422.38C505.556 421.861 505.935 421.4 506.456 421.351C508.011 421.2 509.577 420.954 511.111 420.618C511.619 420.506 512.122 420.828 512.235 421.336C512.293 421.605 512.232 421.872 512.085 422.081C511.954 422.268 511.756 422.406 511.516 422.459L511.517 422.457ZM501.699 423.401C500.053 423.359 498.396 423.217 496.775 422.977C496.259 422.901 495.903 422.421 495.98 421.906C496.056 421.391 496.535 421.036 497.051 421.112C498.598 421.342 500.177 421.478 501.747 421.515C502.268 421.529 502.679 421.962 502.666 422.481C502.661 422.674 502.598 422.851 502.495 422.999C502.32 423.249 502.028 423.408 501.699 423.401Z" fill="#D37232"/>
<path d="M543.334 383.983C543.438 383.834 543.501 383.655 543.504 383.459C543.519 382.653 543.509 381.842 543.476 381.049C543.453 380.529 543.014 380.125 542.494 380.146C541.974 380.168 541.569 380.607 541.59 381.127C541.621 381.882 541.63 382.656 541.617 383.426C541.608 383.947 542.023 384.376 542.543 384.385C542.867 384.391 543.157 384.231 543.332 383.983H543.334Z" fill="#CC9B51"/>
</g>
<path d="M531.026 370.915C530.971 370.72 530.797 370.579 530.594 370.567L524.79 370.23C523.479 367.855 521.778 365.67 519.719 363.784L520.756 358.072C520.792 357.872 520.698 357.67 520.52 357.57L514.439 354.16C514.261 354.06 514.04 354.084 513.888 354.22L509.546 358.079C506.862 357.304 504.111 356.991 501.399 357.11L498.087 352.335C497.97 352.168 497.761 352.092 497.565 352.147L490.851 354.031C490.655 354.087 490.515 354.26 490.503 354.463L490.165 360.262C487.787 361.572 485.601 363.271 483.713 365.328L477.996 364.292C477.795 364.256 477.594 364.35 477.494 364.528L474.079 370.603C473.979 370.781 474.003 371.002 474.139 371.154L478.002 375.492C477.226 378.173 476.912 380.922 477.032 383.632L472.253 386.941C472.085 387.057 472.009 387.266 472.064 387.462L473.95 394.17C474.005 394.366 474.179 394.506 474.382 394.518L480.186 394.856C481.497 397.231 483.196 399.416 485.257 401.301L484.22 407.014C484.184 407.214 484.278 407.416 484.456 407.516L490.537 410.927C490.715 411.028 490.936 411.004 491.088 410.868L495.43 407.008C498.114 407.783 500.865 408.097 503.577 407.977L506.889 412.752C507.006 412.919 507.215 412.995 507.411 412.94L514.125 411.056C514.321 411.001 514.461 410.827 514.473 410.624L514.811 404.825C517.189 403.516 519.375 401.817 521.263 399.759L526.98 400.795C527.181 400.831 527.382 400.737 527.483 400.559L530.897 394.484C530.997 394.306 530.974 394.085 530.838 393.933L526.974 389.596C527.75 386.914 528.064 384.165 527.944 381.455L532.724 378.146C532.891 378.03 532.967 377.821 532.912 377.625L531.026 370.917V370.915Z" fill="url(#paint1_linear_167_3867)"/>
<path d="M507.668 387.447C506.356 388.83 504.585 389.618 502.68 389.669C500.774 389.719 498.963 389.025 497.58 387.714C494.726 385.01 494.607 380.495 497.313 377.634C500.021 374.783 504.546 374.663 507.4 377.367C508.784 378.678 509.573 380.447 509.624 382.351C509.665 383.898 509.213 385.384 508.339 386.627C508.137 386.912 507.915 387.187 507.669 387.445L507.668 387.447ZM498.878 386.347C499.895 387.311 501.227 387.822 502.63 387.784C504.032 387.747 505.335 387.166 506.299 386.151C507.263 385.133 507.774 383.804 507.737 382.402C507.699 381.001 507.118 379.699 506.102 378.736C504.002 376.746 500.672 376.834 498.68 378.932C498.501 379.121 498.338 379.32 498.192 379.528C496.721 381.619 496.966 384.537 498.876 386.347H498.878Z" fill="#FBCBBD"/>
<path d="M516.877 392.791C517.22 392.303 517.54 391.793 517.839 391.263C518.432 390.209 518.918 389.094 519.284 387.946L519.332 387.79C519.456 387.39 519.299 386.971 518.975 386.741C518.896 386.686 518.806 386.641 518.709 386.611C518.211 386.457 517.685 386.738 517.53 387.233C517.198 388.309 516.748 389.354 516.194 390.338C516.164 390.393 516.132 390.447 516.101 390.499C514.768 392.818 512.909 394.717 510.688 396.08C509.482 396.821 508.17 397.403 506.776 397.808C506.764 397.811 506.753 397.814 506.741 397.818C506.707 397.827 506.673 397.837 506.637 397.848C502.553 398.995 498.265 398.482 494.565 396.407C494.085 396.138 493.625 395.849 493.181 395.537C490.199 393.443 488.047 390.412 487.048 386.86C485.9 382.78 486.413 378.496 488.49 374.8C490.567 371.108 493.961 368.437 498.045 367.29C502.13 366.143 506.417 366.656 510.117 368.731C510.588 368.995 511.044 369.282 511.483 369.59C513.386 370.926 514.974 372.662 516.128 374.681C516.2 374.805 516.294 374.908 516.404 374.984C516.694 375.187 517.087 375.218 517.415 375.032C517.866 374.772 518.024 374.199 517.766 373.745C516.475 371.486 514.698 369.543 512.57 368.049C512.078 367.704 511.568 367.383 511.042 367.087C506.903 364.765 502.106 364.193 497.536 365.476C492.966 366.759 489.168 369.739 486.846 373.878C484.522 378.014 483.948 382.805 485.233 387.371C486.35 391.345 488.759 394.735 492.094 397.079C492.589 397.427 493.106 397.752 493.641 398.052C501.656 402.547 511.7 400.147 516.875 392.791H516.877Z" fill="#FBCBBD"/>
<path d="M659.441 373.415V748.201C659.441 750.676 658.439 752.912 656.732 754.291C655.436 755.341 653.801 756.008 652 755.94L647.892 755.789C643.739 755.632 639.994 751.835 639.994 747.498V374.051L659.441 373.416V373.415Z" fill="url(#paint2_linear_167_3867)"/>
<path d="M667.262 359.969C667.262 366.294 664.046 371.956 659.201 375.286C656.475 377.161 653.234 378.296 649.766 378.399C648.045 378.45 646.379 378.246 644.809 377.815C643.627 377.492 642.501 377.043 641.439 376.48C641.172 376.334 640.903 376.189 640.64 376.026C635.686 373.045 632.391 367.535 632.391 361.134C632.391 351.305 640.157 343.057 649.765 342.703C659.41 342.348 667.26 350.073 667.26 359.971L667.262 359.969Z" fill="url(#paint3_linear_167_3867)"/>
<path d="M659.252 359.321C659.252 364.238 656.752 368.64 652.986 371.229C650.866 372.688 648.347 373.569 645.651 373.649C644.312 373.69 643.018 373.531 641.797 373.195C640.878 372.945 640.002 372.595 639.175 372.158C638.966 372.044 638.758 371.931 638.554 371.804C634.701 369.486 632.141 365.203 632.141 360.225C632.141 352.583 638.179 346.17 645.649 345.896C653.148 345.619 659.252 351.626 659.252 359.32V359.321Z" fill="url(#paint4_linear_167_3867)"/>
<path d="M518.872 386.809L520.364 387.58L548.656 370.249L687.207 390.712L706.587 392.928L705.443 396.543C705.288 396.931 683.24 412.983 683.24 412.983L700.401 435.486L699.576 437.8C699.478 438.075 699.21 438.242 698.934 438.199L681.117 435.441L542.488 413.985C542.1 413.926 541.742 413.737 541.467 413.449L519.173 390.132C518.88 389.825 518.728 389.403 518.752 388.968L518.873 386.809H518.872Z" fill="url(#paint5_linear_167_3867)"/>
<path d="M550.219 368.726L706.585 392.927C706.73 392.949 706.772 393.146 706.651 393.234L684.617 409.339C684.318 409.557 684.239 409.982 684.437 410.296L700.195 435.165C700.273 435.287 700.172 435.45 700.032 435.429L543.567 411.213C543.12 411.144 542.708 410.932 542.386 410.605L519.067 387.008C518.969 386.908 518.991 386.736 519.112 386.665L548.808 369.004C549.237 368.749 549.733 368.652 550.219 368.726Z" fill="url(#paint6_linear_167_3867)"/>
<path d="M532.474 532.903L534.061 533.292L556.789 510.396L692.269 497.996L710.35 495.739C710.725 495.692 711.052 495.995 711.031 496.373L710.874 499.327C710.818 499.73 693.635 519.988 693.635 519.988L714.998 537.356L714.749 539.736C714.72 540.018 714.504 540.237 714.234 540.261L696.783 541.737L561.001 553.216C560.622 553.248 560.241 553.151 559.915 552.942L533.519 535.979C533.172 535.757 532.931 535.392 532.855 534.974L532.474 532.902V532.903Z" fill="#F4BC4C"/>
<path d="M557.914 508.597L710.614 495.688C710.928 495.661 711.117 496.027 710.915 496.267L694.101 516.222C693.871 516.496 693.893 516.923 694.149 517.17L714.739 537.108C714.839 537.205 714.779 537.377 714.639 537.389L561.387 550.344C560.951 550.381 560.511 550.275 560.133 550.04L532.706 533.048C532.588 532.975 532.568 532.809 532.669 532.712L556.647 509.184C556.994 508.843 557.439 508.637 557.914 508.597Z" fill="#EAAA2B"/>
<path opacity="0.56" d="M648.212 513.177L563.098 519.825C562.783 519.849 562.548 520.125 562.572 520.439L562.879 524.357C562.904 524.672 563.179 524.907 563.494 524.883L648.607 518.235C648.923 518.21 649.158 517.935 649.133 517.62L648.827 513.703C648.802 513.388 648.527 513.152 648.212 513.177Z" fill="white"/>
<path opacity="0.56" d="M648.667 531.66L564.234 538.253C563.92 538.277 563.642 538.041 563.618 537.727L563.333 534.072C563.309 533.759 563.545 533.481 563.859 533.457L648.292 526.864C648.605 526.84 648.883 527.076 648.907 527.389L649.193 531.044C649.217 531.358 648.981 531.636 648.667 531.66Z" fill="white"/>
<path d="M778.974 456.437L777.329 457.091L748.807 438.644L600.372 450.023L579.704 451.202L580.547 454.433C580.678 454.819 602.723 471.77 602.723 471.77L582.678 492.461L583.359 494.746C583.44 495.017 583.711 495.194 584.007 495.17L603.104 493.584L751.704 481.251C752.119 481.217 752.514 481.057 752.83 480.796L778.379 459.626C778.714 459.349 778.911 458.95 778.922 458.529L778.973 456.437H778.974Z" fill="#FF784F"/>
<path d="M747.277 437.081L580.012 450.962C579.737 450.984 579.634 451.334 579.852 451.502L601.563 468.168C601.858 468.395 601.907 468.816 601.672 469.105L582.923 492.157C582.831 492.272 582.92 492.442 583.067 492.428L750.786 478.51C751.264 478.469 751.719 478.29 752.088 477.995L778.746 456.618C778.856 456.53 778.846 456.359 778.726 456.283L748.745 437.433C748.311 437.161 747.794 437.036 747.274 437.079L747.277 437.081Z" fill="#FF784F"/>
<path opacity="0.56" d="M744.544 448.132L661.412 454.625C661.097 454.65 660.862 454.925 660.886 455.24L661.205 459.314C661.23 459.629 661.505 459.865 661.82 459.84L744.952 453.347C745.267 453.322 745.503 453.047 745.478 452.732L745.159 448.658C745.135 448.343 744.859 448.108 744.544 448.132Z" fill="white"/>
<path opacity="0.56" d="M744.679 462.236L662.212 468.677C661.897 468.702 661.662 468.977 661.686 469.292L661.984 473.097C662.009 473.411 662.284 473.647 662.599 473.622L745.066 467.181C745.381 467.156 745.617 466.881 745.592 466.566L745.295 462.762C745.27 462.447 744.995 462.211 744.679 462.236Z" fill="white"/>
<path d="M655.556 407.629C656.082 404.394 653.883 401.346 650.646 400.821C647.408 400.296 644.357 402.493 643.832 405.727C643.306 408.962 645.505 412.01 648.743 412.535C651.98 413.06 655.031 410.864 655.556 407.629Z" fill="url(#paint7_linear_167_3867)"/>
<path d="M650.088 409.37C652.1 409.37 653.731 407.74 653.731 405.73C653.731 403.72 652.1 402.09 650.088 402.09C648.076 402.09 646.444 403.72 646.444 405.73C646.444 407.74 648.076 409.37 650.088 409.37Z" fill="url(#paint8_linear_167_3867)"/>
<path d="M654.297 468.24C655.022 465.169 653.119 462.091 650.044 461.366C646.97 460.641 643.89 462.544 643.164 465.615C642.439 468.686 644.343 471.764 647.417 472.489C650.491 473.214 653.571 471.312 654.297 468.24Z" fill="url(#paint9_linear_167_3867)"/>
<path d="M649.133 469.535C651.071 469.535 652.643 467.964 652.643 466.027C652.643 464.09 651.071 462.52 649.133 462.52C647.194 462.52 645.622 464.09 645.622 466.027C645.622 467.964 647.194 469.535 649.133 469.535Z" fill="url(#paint10_linear_167_3867)"/>
<path d="M653.295 525.186C655.616 522.868 655.616 519.109 653.295 516.791C650.975 514.472 647.212 514.472 644.892 516.791C642.572 519.109 642.572 522.868 644.892 525.186C647.212 527.505 650.975 527.505 653.295 525.186Z" fill="url(#paint11_linear_167_3867)"/>
<path d="M653.038 520.869C653.5 518.911 652.286 516.949 650.326 516.487C648.366 516.024 646.402 517.237 645.94 519.196C645.477 521.154 646.691 523.116 648.651 523.578C650.611 524.04 652.575 522.828 653.038 520.869Z" fill="url(#paint12_linear_167_3867)"/>
<path opacity="0.56" d="M632.652 392.533L556.579 380.536C556.267 380.487 555.974 380.7 555.924 381.012L555.348 384.659C555.299 384.971 555.512 385.264 555.824 385.313L631.897 397.31C632.209 397.36 632.502 397.147 632.552 396.835L633.128 393.187C633.177 392.875 632.964 392.583 632.652 392.533Z" fill="white"/>
<path opacity="0.56" d="M629.742 405.247L554.277 393.345C553.965 393.296 553.672 393.509 553.623 393.821L553.085 397.222C553.036 397.534 553.249 397.827 553.561 397.876L629.026 409.777C629.338 409.827 629.631 409.614 629.681 409.302L630.218 405.901C630.267 405.589 630.054 405.296 629.742 405.247Z" fill="white"/>
<path d="M522.161 566.286C475.069 565.06 422.978 577.698 422.978 577.698C410.575 646.071 416.032 723.409 418.143 746.833C418.539 751.22 421.823 754.781 426.158 755.578C450.492 760.047 476.154 757.336 489.065 755.372C494.088 754.608 498.103 750.82 499.17 745.858C507.7 706.186 532.072 618.662 532.072 618.662C555.112 616.029 574.131 609.575 589.826 600.954C578.05 587.051 572.604 569.448 570.265 559.052C553.563 564.064 536.687 566.665 522.162 566.286H522.161Z" fill="#FF784F"/>
<path d="M661.943 498.301C657.37 492.673 653.075 492.917 653.075 492.917C645.864 522.101 607.711 547.813 570.265 559.05C572.604 569.447 578.05 587.048 589.826 600.953C652.12 566.735 661.943 498.301 661.943 498.301Z" fill="url(#paint13_linear_167_3867)"/>
<path d="M660.806 499.71C661.275 501.253 655.647 503.54 652.406 497.22C652.319 494.205 650.608 481.275 652.434 478.837C662.16 465.851 680.93 449.635 680.93 449.635C684.046 452.766 681.426 455.788 681.426 455.788L672.307 465.1C674.163 468.528 676.439 471.428 677.48 475.564C678.267 478.695 677.735 482.029 676.129 484.855C674.516 487.694 672.318 491.382 670.246 494.263C666.325 499.719 660.806 499.709 660.806 499.709V499.71Z" fill="url(#paint14_linear_167_3867)"/>
<path d="M668.299 471.161L660.004 478.051L657.354 484.966L664.613 493.167C664.613 493.167 667.211 479.423 669.072 476.461C670.934 473.499 669.997 472.049 668.298 471.162L668.299 471.161Z" fill="url(#paint15_linear_167_3867)"/>
<path d="M440.607 623.433L422.978 577.696C422.978 577.696 378.7 607.142 371.104 644.937C379.41 645.628 394.516 647.932 409.25 655.542C412.673 637.693 440.607 623.433 440.607 623.433Z" fill="#FF794F"/>
<path d="M478.643 666.675C478.643 666.675 428.984 694.092 412.545 670.119C409.132 665.141 408.352 660.22 409.25 655.542C394.516 647.932 379.41 645.628 371.104 644.937C368.815 656.33 369.852 668.483 376.447 680.816C405.13 734.448 485.063 678.902 485.063 678.902L478.643 666.672V666.675Z" fill="url(#paint16_linear_167_3867)"/>
<path d="M474.82 527.628L459.42 570.785C459.164 571.5 459.452 572.297 460.113 572.67C464.176 574.965 478.831 581.629 496.674 570.562C498.534 569.41 499.81 567.513 500.11 565.348L505.321 527.919L474.818 527.628H474.82Z" fill="url(#paint17_linear_167_3867)"/>
<path d="M507.809 487.843C507.809 487.843 523.97 518.949 521.742 531.431C519.514 543.912 499.127 542.82 481.414 532.497L469.289 498.961L507.809 487.843Z" fill="url(#paint18_linear_167_3867)"/>
<path d="M482.358 516.094C483.084 515.78 483.36 514.898 482.933 514.232C481.633 512.207 479.201 508.079 478.447 504.476C478.447 504.476 475.507 502.555 486.018 500.148C496.529 497.739 512.206 493.996 515.579 485.108C518.867 476.442 510.655 454.493 497.052 471.789C496.535 472.448 495.534 472.452 495.029 471.783C492.855 468.899 487.12 462.898 479.046 466.426C471.49 469.727 470.59 475.226 470.667 478.003C470.689 478.82 469.952 479.449 469.15 479.288C465.352 478.526 456.232 477.817 451.882 487.132C448.299 494.804 450.538 499.189 452.594 501.341C453.261 502.038 452.955 503.174 452.029 503.447C449.522 504.188 446.274 506.275 446.542 512.13C446.911 520.224 455.97 519.597 458.551 519.253C458.974 519.197 459.399 519.346 459.681 519.665C461.867 522.131 471.725 532.6 482.491 533.953C483.423 534.071 484.155 533.157 483.858 532.266L479.324 518.677C479.113 518.045 479.421 517.359 480.032 517.094L482.355 516.092L482.358 516.094Z" fill="#5D2C1D"/>
<path d="M484.214 518.034C484.214 518.034 472.573 509.89 471.653 516.646C470.732 523.401 482.111 526.544 487.785 524.076L484.215 518.034H484.214Z" fill="url(#paint19_linear_167_3867)"/>
<path d="M468.494 710.006L495.545 615.622C495.853 614.55 496.767 613.77 497.875 613.641C502.776 613.069 516.978 611.466 533.375 610.08C553.126 608.411 576.064 607.058 589.769 608.209C591.718 608.372 592.896 610.432 592.029 612.184C584.235 627.939 552.174 692.024 536.119 713.019C535.587 713.715 534.765 714.121 533.888 714.113L471.124 713.53C469.298 713.513 467.99 711.762 468.492 710.007L468.494 710.006Z" fill="url(#paint20_linear_167_3867)"/>
<path d="M475.029 687.202C475.029 687.202 471.26 671.721 472.782 666.228C474.302 660.735 477.247 653.674 487.063 655.243C496.88 656.813 508.458 660.944 508.458 660.944C508.458 660.944 507.874 668.098 500.412 665.791L505.039 669.367C505.039 669.367 504.377 675.094 498.077 672.035L502.379 676.778C502.379 676.778 499.673 681.483 495.035 678.466C490.4 675.448 488.176 689.067 475.028 687.202H475.029Z" fill="url(#paint21_linear_167_3867)"/>
<path d="M531.571 638.253C531.571 642.636 535.127 646.186 539.513 646.186C543.899 646.186 547.453 642.634 547.453 638.253C547.453 633.873 543.897 630.319 539.513 630.319C535.128 630.319 531.571 633.871 531.571 638.253Z" fill="#91B3FA"/>
<path d="M498.606 643.484L504.113 624.817C504.788 622.525 506.634 620.804 508.926 620.324C526.188 616.726 573.437 615.963 573.912 615.955L573.88 613.847C571.932 613.877 525.954 614.622 508.496 618.261C505.441 618.897 502.986 621.181 502.088 624.22L496.581 642.887L498.606 643.484Z" fill="#BDD0FB"/>
<path d="M657.39 755.363C656.832 755.269 656.341 754.959 656.019 754.494C651.327 747.735 617.327 694.927 666.291 649.214C712.772 605.819 733.485 597.265 737.043 571.009C737.459 567.942 741.645 567.337 742.925 570.155C752.497 591.209 766.896 640.084 713.107 670.143C653.772 703.3 657.313 741.84 659.779 752.84C660.105 754.294 658.86 755.611 657.39 755.363Z" fill="#FA764E"/>
<path d="M664.578 756.576C663.258 756.353 662.242 755.299 662.081 753.973C660.979 744.944 658.641 711.262 683.681 703.149C711.248 694.219 732.438 720.281 753.106 701.073C754.194 700.062 755.936 701.029 755.639 702.482C753.523 712.793 744.813 736.553 709.325 740.256C671.339 744.219 666.944 748.419 667.535 753.819C667.718 755.484 666.232 756.853 664.578 756.574V756.576Z" fill="#FA764E"/>
<path opacity="0.47" d="M734.569 597.735C734.004 599.619 733.28 601.408 732.453 603.166C731.629 604.92 730.72 606.636 729.743 608.309C728.767 609.985 727.723 611.624 726.593 613.201C725.469 614.782 724.299 616.336 723.052 617.825C718.095 623.812 712.215 629.02 705.804 633.413C702.603 635.605 699.219 637.586 695.83 639.399C692.491 641.192 689.272 643.213 686.18 645.416C680.001 649.823 674.331 654.958 669.345 660.683C664.355 666.406 660.081 672.749 656.684 679.53C653.282 686.307 650.825 693.568 649.502 701.043C648.174 708.517 647.981 716.19 648.848 723.753C649.699 731.324 651.677 738.757 654.38 745.907C654.459 746.112 654.356 746.342 654.151 746.42C653.951 746.496 653.725 746.397 653.643 746.202C650.681 739.088 648.529 731.599 647.492 723.924C646.956 720.09 646.71 716.213 646.748 712.335C646.809 708.459 647.127 704.578 647.769 700.749C649.019 693.083 651.436 685.61 654.83 678.619C658.225 671.623 662.619 665.132 667.685 659.249C672.763 653.37 678.538 648.097 684.846 643.555C688.002 641.287 691.293 639.202 694.715 637.344L697.233 635.97C698.073 635.526 698.889 635.043 699.706 634.559L700.933 633.838L702.136 633.078L703.339 632.318L704.52 631.525C707.664 629.404 710.704 627.122 713.564 624.63C716.428 622.144 719.155 619.493 721.652 616.632C724.179 613.798 726.479 610.762 728.57 607.587C730.638 604.408 732.503 601.039 733.871 597.522L733.88 597.498C733.953 597.311 734.162 597.219 734.349 597.292C734.525 597.36 734.618 597.554 734.564 597.734L734.569 597.735Z" fill="white"/>
<path opacity="0.47" d="M663.438 750.426C663.501 750.11 663.49 749.806 663.487 749.497L663.492 748.573C663.499 747.957 663.515 747.341 663.536 746.726C663.583 745.495 663.654 744.265 663.753 743.038C663.952 740.583 664.251 738.136 664.668 735.705C665.515 730.854 666.797 726.039 668.922 721.552C669.982 719.312 671.276 717.17 672.847 715.232C674.41 713.289 676.297 711.591 678.433 710.273C680.576 708.971 682.973 708.072 685.446 707.656C686.681 707.442 687.933 707.321 689.184 707.317C690.435 707.291 691.684 707.379 692.923 707.523C694.168 707.675 695.369 707.893 696.586 708.098L700.222 708.74C702.643 709.18 705.059 709.646 707.471 710.127C712.297 711.082 717.102 712.13 721.924 713.017C724.336 713.455 726.754 713.848 729.183 714.091C731.608 714.328 734.052 714.415 736.453 714.137C738.853 713.877 741.204 713.198 743.325 712.05C745.453 710.912 747.333 709.338 749.003 707.577C749.126 707.447 749.331 707.441 749.461 707.563C749.589 707.684 749.595 707.887 749.476 708.017C747.791 709.834 745.876 711.481 743.674 712.69C741.482 713.912 739.031 714.649 736.55 714.946C734.065 715.242 731.565 715.157 729.102 714.923C726.638 714.682 724.199 714.293 721.773 713.86C716.924 712.982 712.119 711.947 707.298 711.006C702.485 710.066 697.637 709.159 692.811 708.441C691.611 708.293 690.402 708.198 689.196 708.216C687.988 708.211 686.784 708.319 685.597 708.516C683.22 708.898 680.926 709.742 678.862 710.973C676.806 712.222 674.975 713.842 673.445 715.717C671.907 717.586 670.628 719.669 669.568 721.86C667.437 726.243 666.116 730.997 665.23 735.802C664.792 738.209 664.47 740.638 664.249 743.076C664.139 744.296 664.056 745.518 663.998 746.741C663.97 747.353 663.949 747.963 663.935 748.576L663.922 749.494C663.919 749.798 663.912 750.107 663.988 750.406C664.027 750.557 663.935 750.709 663.784 750.748C663.634 750.787 663.481 750.696 663.442 750.545C663.432 750.503 663.43 750.46 663.438 750.421V750.426Z" fill="white"/>
<path d="M474.136 402.074C474.053 401.782 473.793 401.573 473.49 401.555L464.816 401.05C462.857 397.499 460.317 394.237 457.238 391.418L458.788 382.882C458.842 382.582 458.7 382.282 458.435 382.132L449.347 377.035C449.081 376.886 448.751 376.922 448.524 377.125L442.037 382.891C438.025 381.732 433.914 381.265 429.86 381.443L424.912 374.307C424.738 374.058 424.425 373.944 424.132 374.026L414.098 376.842C413.805 376.925 413.596 377.184 413.578 377.487L413.073 386.153C409.519 388.111 406.252 390.649 403.432 393.725L394.888 392.177C394.588 392.123 394.288 392.263 394.138 392.529L389.036 401.608C388.887 401.874 388.923 402.204 389.126 402.431L394.899 408.913C393.739 412.92 393.272 417.028 393.449 421.078L386.307 426.022C386.058 426.195 385.944 426.509 386.026 426.802L388.845 436.826C388.927 437.119 389.187 437.328 389.491 437.346L398.164 437.85C400.124 441.401 402.664 444.663 405.743 447.482L404.193 456.019C404.139 456.319 404.28 456.619 404.546 456.768L413.633 461.865C413.899 462.015 414.23 461.979 414.457 461.776L420.944 456.01C424.955 457.168 429.066 457.636 433.121 457.458L438.069 464.593C438.242 464.844 438.556 464.956 438.849 464.874L448.883 462.058C449.176 461.976 449.385 461.716 449.403 461.413L449.908 452.747C453.462 450.79 456.727 448.251 459.548 445.176L468.092 446.724C468.391 446.778 468.693 446.637 468.842 446.372L473.944 437.292C474.094 437.026 474.058 436.696 473.855 436.469L468.083 429.988C469.243 425.98 469.711 421.873 469.533 417.822L476.675 412.878C476.926 412.705 477.038 412.392 476.956 412.099L474.137 402.074H474.136Z" fill="url(#paint22_linear_167_3867)"/>
<path d="M439.091 426.651C435.116 430.839 428.473 431.015 424.281 427.043C422.25 425.12 421.092 422.521 421.018 419.726C420.943 416.932 421.962 414.274 423.888 412.247C427.864 408.059 434.506 407.882 438.698 411.854C442.512 415.467 443.002 421.288 440.066 425.461C439.774 425.874 439.45 426.273 439.091 426.651ZM423.459 419.662C423.516 421.804 424.405 423.796 425.963 425.273C429.176 428.317 434.27 428.183 437.317 424.971C440.368 421.761 440.23 416.671 437.015 413.625C433.802 410.58 428.708 410.715 425.661 413.927C425.384 414.218 425.133 414.525 424.906 414.848C423.921 416.248 423.413 417.921 423.459 419.662Z" fill="#FBDBBD"/>
<path d="M452.321 434.328C452.825 433.612 453.297 432.865 453.732 432.09C453.87 431.847 454.003 431.6 454.131 431.353C454.768 430.13 455.306 428.858 455.738 427.556C455.744 427.538 455.75 427.52 455.756 427.502C455.772 427.451 455.789 427.402 455.805 427.351C455.836 427.252 455.868 427.154 455.898 427.055C455.978 426.796 455.877 426.524 455.666 426.376C455.615 426.34 455.557 426.312 455.494 426.292C455.171 426.192 454.831 426.375 454.73 426.696C454.219 428.353 453.524 429.967 452.667 431.491C448.412 439.067 440.701 443.509 432.604 443.963C428.1 444.216 423.476 443.233 419.258 440.868C418.519 440.453 417.806 440.005 417.121 439.524C412.516 436.29 409.19 431.609 407.648 426.122C405.876 419.818 406.666 413.201 409.875 407.491C416.503 395.7 431.486 391.499 443.283 398.116C444.011 398.524 444.715 398.967 445.392 399.443C448.33 401.507 450.784 404.19 452.567 407.308C452.613 407.388 452.674 407.454 452.746 407.505C452.933 407.636 453.188 407.657 453.4 407.535C453.693 407.366 453.796 406.996 453.628 406.701C451.755 403.427 449.18 400.611 446.096 398.445C445.384 397.944 444.644 397.48 443.882 397.052C431.496 390.104 415.761 394.524 408.809 406.894C405.441 412.889 404.611 419.835 406.472 426.452C408.092 432.214 411.581 437.126 416.417 440.523C417.136 441.028 417.885 441.498 418.661 441.934C424.661 445.3 431.613 446.13 438.238 444.271C444.006 442.652 448.925 439.163 452.323 434.331L452.321 434.328Z" fill="#FBDBBD"/>
</g>
<path d="M311.136 621.074C311.053 620.782 310.793 620.573 310.49 620.555L301.816 620.05C299.857 616.499 297.317 613.237 294.238 610.418L295.788 601.882C295.842 601.582 295.7 601.282 295.435 601.132L286.347 596.035C286.081 595.886 285.751 595.922 285.524 596.125L279.037 601.891C275.025 600.732 270.914 600.265 266.86 600.443L261.912 593.307C261.738 593.058 261.425 592.944 261.132 593.026L251.098 595.842C250.805 595.925 250.596 596.184 250.578 596.487L250.073 605.153C246.519 607.111 243.252 609.649 240.432 612.725L231.888 611.177C231.588 611.123 231.288 611.263 231.138 611.529L226.036 620.608C225.887 620.874 225.923 621.204 226.126 621.431L231.899 627.913C230.739 631.92 230.272 636.028 230.449 640.078L223.307 645.022C223.058 645.195 222.944 645.509 223.026 645.802L225.845 655.826C225.927 656.119 226.187 656.328 226.491 656.346L235.164 656.85C237.124 660.401 239.664 663.663 242.743 666.482L241.193 675.019C241.139 675.319 241.28 675.619 241.546 675.768L250.633 680.865C250.899 681.015 251.23 680.979 251.457 680.776L257.944 675.01C261.955 676.168 266.066 676.636 270.121 676.458L275.069 683.593C275.242 683.844 275.556 683.956 275.849 683.874L285.883 681.058C286.176 680.976 286.385 680.716 286.403 680.413L286.908 671.747C290.462 669.79 293.727 667.251 296.548 664.176L305.092 665.724C305.391 665.778 305.693 665.637 305.842 665.372L310.944 656.292C311.094 656.026 311.058 655.696 310.855 655.469L305.083 648.988C306.243 644.98 306.711 640.873 306.533 636.822L313.675 631.878C313.926 631.705 314.038 631.392 313.956 631.099L311.137 621.074H311.136Z" fill="url(#paint23_linear_167_3867)"/>
<path d="M276.091 645.651C272.116 649.839 265.473 650.015 261.281 646.043C259.25 644.12 258.092 641.521 258.018 638.726C257.943 635.932 258.962 633.274 260.888 631.247C264.864 627.059 271.506 626.882 275.698 630.854C279.512 634.467 280.002 640.288 277.066 644.461C276.774 644.874 276.45 645.273 276.091 645.651ZM260.459 638.662C260.516 640.804 261.405 642.796 262.963 644.273C266.176 647.317 271.27 647.183 274.317 643.971C277.368 640.761 277.23 635.671 274.015 632.625C270.802 629.581 265.708 629.715 262.661 632.927C262.384 633.218 262.133 633.525 261.906 633.848C260.921 635.248 260.413 636.921 260.459 638.662Z" fill="#FBDBBD"/>
<path d="M289.321 653.328C289.825 652.612 290.297 651.865 290.732 651.09C290.87 650.847 291.003 650.6 291.131 650.353C291.768 649.13 292.306 647.858 292.738 646.556C292.744 646.538 292.75 646.52 292.756 646.502C292.772 646.451 292.789 646.402 292.805 646.351C292.836 646.252 292.868 646.154 292.898 646.055C292.978 645.796 292.877 645.524 292.666 645.376C292.615 645.34 292.557 645.312 292.494 645.292C292.171 645.192 291.831 645.375 291.73 645.696C291.219 647.353 290.524 648.967 289.667 650.491C285.412 658.067 277.701 662.509 269.604 662.963C265.1 663.216 260.476 662.233 256.258 659.868C255.519 659.453 254.806 659.005 254.121 658.524C249.516 655.29 246.19 650.609 244.648 645.122C242.876 638.818 243.666 632.201 246.875 626.491C253.503 614.7 268.486 610.499 280.283 617.116C281.011 617.524 281.715 617.967 282.392 618.443C285.33 620.507 287.784 623.19 289.567 626.308C289.613 626.388 289.674 626.454 289.746 626.505C289.933 626.636 290.188 626.657 290.4 626.535C290.693 626.366 290.796 625.996 290.628 625.701C288.755 622.427 286.18 619.611 283.096 617.445C282.384 616.944 281.644 616.48 280.882 616.052C268.496 609.104 252.761 613.524 245.809 625.894C242.441 631.889 241.611 638.835 243.472 645.452C245.092 651.214 248.581 656.126 253.417 659.523C254.136 660.028 254.885 660.498 255.661 660.934C261.661 664.3 268.613 665.13 275.238 663.271C281.006 661.652 285.925 658.163 289.323 653.331L289.321 653.328Z" fill="#FBDBBD"/>
<path d="M287.28 346.097C287.26 346.023 287.194 345.97 287.117 345.966L284.924 345.838C284.429 344.941 283.787 344.116 283.009 343.403L283.4 341.245C283.414 341.169 283.378 341.094 283.311 341.056L281.014 339.767C280.947 339.73 280.863 339.739 280.806 339.79L279.166 341.248C278.152 340.955 277.113 340.837 276.088 340.881L274.837 339.078C274.793 339.015 274.714 338.986 274.64 339.007L272.103 339.719C272.029 339.739 271.976 339.805 271.972 339.882L271.844 342.072C270.946 342.567 270.12 343.209 269.407 343.986L267.247 343.595C267.171 343.581 267.095 343.617 267.057 343.684L265.768 345.979C265.73 346.047 265.739 346.13 265.79 346.187L267.25 347.826C266.956 348.839 266.838 349.877 266.883 350.901L265.078 352.151C265.015 352.195 264.986 352.274 265.007 352.348L265.719 354.882C265.74 354.956 265.806 355.009 265.882 355.014L268.075 355.141C268.57 356.039 269.213 356.863 269.991 357.576L269.599 359.734C269.585 359.81 269.621 359.886 269.688 359.923L271.986 361.212C272.053 361.25 272.136 361.241 272.194 361.189L273.834 359.732C274.848 360.025 275.887 360.143 276.912 360.098L278.163 361.902C278.207 361.965 278.286 361.993 278.36 361.973L280.897 361.261C280.971 361.24 281.023 361.174 281.028 361.098L281.156 358.907C282.054 358.412 282.88 357.77 283.593 356.993L285.753 357.384C285.828 357.398 285.904 357.362 285.942 357.295L287.232 355C287.27 354.933 287.261 354.849 287.209 354.792L285.75 353.154C286.043 352.14 286.162 351.102 286.117 350.078L287.922 348.828C287.986 348.785 288.014 348.705 287.993 348.631L287.281 346.097H287.28Z" fill="url(#paint24_linear_167_3867)"/>
<path d="M278.422 352.31C277.417 353.369 275.737 353.413 274.678 352.409C274.164 351.923 273.871 351.266 273.853 350.559C273.834 349.853 274.091 349.181 274.578 348.669C275.583 347.61 277.262 347.565 278.322 348.569C279.286 349.483 279.41 350.954 278.668 352.009C278.594 352.114 278.512 352.214 278.422 352.31ZM274.47 350.543C274.484 351.085 274.709 351.588 275.103 351.962C275.915 352.731 277.203 352.697 277.973 351.885C278.744 351.074 278.709 349.787 277.897 349.017C277.085 348.247 275.797 348.281 275.026 349.093C274.956 349.167 274.893 349.245 274.836 349.326C274.587 349.68 274.458 350.103 274.47 350.543Z" fill="#FBDBBD"/>
<path d="M281.766 354.251C281.893 354.07 282.013 353.881 282.122 353.685C282.157 353.623 282.191 353.561 282.223 353.499C282.384 353.189 282.52 352.868 282.629 352.539C282.631 352.534 282.633 352.53 282.634 352.525C282.638 352.512 282.642 352.5 282.646 352.487C282.654 352.462 282.662 352.437 282.67 352.412C282.69 352.347 282.665 352.278 282.611 352.24C282.598 352.231 282.584 352.224 282.568 352.219C282.486 352.194 282.4 352.24 282.375 352.321C282.246 352.74 282.07 353.148 281.853 353.534C280.778 355.449 278.828 356.572 276.781 356.686C275.643 356.75 274.474 356.502 273.408 355.904C273.221 355.799 273.04 355.686 272.867 355.564C271.703 354.747 270.862 353.563 270.473 352.176C270.025 350.583 270.224 348.91 271.036 347.466C272.711 344.486 276.499 343.424 279.481 345.096C279.665 345.2 279.843 345.312 280.014 345.432C280.757 345.954 281.377 346.632 281.828 347.42C281.84 347.44 281.855 347.457 281.873 347.47C281.92 347.503 281.985 347.508 282.039 347.477C282.113 347.435 282.139 347.341 282.096 347.267C281.623 346.439 280.972 345.727 280.192 345.18C280.012 345.053 279.825 344.936 279.632 344.827C276.501 343.071 272.524 344.188 270.766 347.315C269.915 348.831 269.705 350.587 270.175 352.26C270.585 353.716 271.467 354.958 272.689 355.817C272.871 355.944 273.06 356.063 273.257 356.174C274.773 357.024 276.531 357.234 278.206 356.764C279.664 356.355 280.907 355.473 281.766 354.252L281.766 354.251Z" fill="#FBDBBD"/>
<path d="M267.28 240.097C267.26 240.023 267.194 239.97 267.117 239.966L264.924 239.838C264.429 238.941 263.787 238.116 263.009 237.403L263.4 235.245C263.414 235.169 263.378 235.094 263.311 235.056L261.014 233.767C260.947 233.73 260.863 233.739 260.806 233.79L259.166 235.248C258.152 234.955 257.113 234.837 256.088 234.881L254.837 233.078C254.793 233.015 254.714 232.986 254.64 233.007L252.103 233.719C252.029 233.739 251.976 233.805 251.972 233.882L251.844 236.072C250.946 236.567 250.12 237.209 249.407 237.986L247.247 237.595C247.171 237.581 247.095 237.617 247.057 237.684L245.768 239.979C245.73 240.047 245.739 240.13 245.79 240.187L247.25 241.826C246.956 242.839 246.838 243.877 246.883 244.901L245.078 246.151C245.015 246.195 244.986 246.274 245.007 246.348L245.719 248.882C245.74 248.956 245.806 249.009 245.882 249.014L248.075 249.141C248.57 250.039 249.213 250.863 249.991 251.576L249.599 253.734C249.585 253.81 249.621 253.886 249.688 253.923L251.986 255.212C252.053 255.25 252.136 255.241 252.194 255.189L253.834 253.732C254.848 254.025 255.887 254.143 256.912 254.098L258.163 255.902C258.207 255.965 258.286 255.993 258.36 255.973L260.897 255.261C260.971 255.24 261.023 255.174 261.028 255.098L261.156 252.907C262.054 252.412 262.88 251.77 263.593 250.993L265.753 251.384C265.828 251.398 265.904 251.362 265.942 251.295L267.232 249C267.27 248.933 267.261 248.849 267.209 248.792L265.75 247.154C266.043 246.14 266.162 245.102 266.117 244.078L267.922 242.828C267.986 242.785 268.014 242.705 267.993 242.631L267.281 240.097H267.28Z" fill="url(#paint25_linear_167_3867)"/>
<path d="M258.422 246.31C257.417 247.369 255.737 247.413 254.678 246.409C254.164 245.923 253.871 245.266 253.853 244.559C253.834 243.853 254.091 243.181 254.578 242.669C255.583 241.61 257.262 241.565 258.322 242.569C259.286 243.483 259.41 244.954 258.668 246.009C258.594 246.114 258.512 246.214 258.422 246.31ZM254.47 244.543C254.484 245.085 254.709 245.588 255.103 245.962C255.915 246.731 257.203 246.697 257.973 245.885C258.744 245.074 258.709 243.787 257.897 243.017C257.085 242.247 255.797 242.281 255.026 243.093C254.956 243.167 254.893 243.245 254.836 243.326C254.587 243.68 254.458 244.103 254.47 244.543Z" fill="#FBDBBD"/>
<path d="M261.766 248.251C261.893 248.07 262.013 247.881 262.122 247.685C262.157 247.623 262.191 247.561 262.223 247.499C262.384 247.189 262.52 246.868 262.629 246.539C262.631 246.534 262.633 246.53 262.634 246.525C262.638 246.512 262.642 246.5 262.646 246.487C262.654 246.462 262.662 246.437 262.67 246.412C262.69 246.347 262.665 246.278 262.611 246.24C262.598 246.231 262.584 246.224 262.568 246.219C262.486 246.194 262.4 246.24 262.375 246.321C262.246 246.74 262.07 247.148 261.853 247.534C260.778 249.449 258.828 250.572 256.781 250.686C255.643 250.75 254.474 250.502 253.408 249.904C253.221 249.799 253.04 249.686 252.867 249.564C251.703 248.747 250.862 247.563 250.473 246.176C250.025 244.583 250.224 242.91 251.036 241.466C252.711 238.486 256.499 237.424 259.481 239.096C259.665 239.2 259.843 239.312 260.014 239.432C260.757 239.954 261.377 240.632 261.828 241.42C261.84 241.44 261.855 241.457 261.873 241.47C261.92 241.503 261.985 241.508 262.039 241.477C262.113 241.435 262.139 241.341 262.096 241.267C261.623 240.439 260.972 239.727 260.192 239.18C260.012 239.053 259.825 238.936 259.632 238.827C256.501 237.071 252.524 238.188 250.766 241.315C249.915 242.831 249.705 244.587 250.175 246.26C250.585 247.716 251.467 248.958 252.689 249.817C252.871 249.944 253.06 250.063 253.257 250.174C254.773 251.024 256.531 251.234 258.206 250.764C259.664 250.355 260.907 249.473 261.766 248.252L261.766 248.251Z" fill="#FBDBBD"/>
<path d="M399.593 170.011C399.582 169.97 399.544 169.94 399.501 169.937L398.262 169.865C397.982 169.358 397.619 168.892 397.179 168.489L397.4 167.269C397.408 167.226 397.388 167.183 397.35 167.162L396.051 166.434C396.013 166.412 395.966 166.417 395.934 166.446L395.007 167.27C394.434 167.105 393.846 167.038 393.267 167.063L392.56 166.044C392.535 166.008 392.49 165.992 392.448 166.004L391.015 166.406C390.973 166.418 390.943 166.455 390.94 166.498L390.868 167.737C390.361 168.016 389.894 168.379 389.491 168.818L388.27 168.597C388.227 168.589 388.184 168.61 388.163 168.648L387.434 169.945C387.412 169.983 387.418 170.03 387.447 170.062L388.272 170.989C388.106 171.561 388.039 172.148 388.064 172.727L387.044 173.433C387.008 173.458 386.992 173.503 387.004 173.545L387.407 174.977C387.418 175.019 387.455 175.049 387.499 175.051L388.738 175.123C389.018 175.631 389.381 176.097 389.821 176.5L389.599 177.719C389.592 177.762 389.612 177.805 389.65 177.826L390.948 178.555C390.986 178.576 391.034 178.571 391.066 178.542L391.993 177.718C392.566 177.883 393.154 177.95 393.733 177.925L394.44 178.944C394.465 178.98 394.509 178.996 394.551 178.985L395.985 178.582C396.027 178.57 396.057 178.533 396.059 178.49L396.131 177.252C396.639 176.972 397.106 176.609 397.509 176.17L398.73 176.391C398.772 176.399 398.816 176.379 398.837 176.341L399.566 175.043C399.587 175.006 399.582 174.958 399.553 174.926L398.728 174C398.894 173.427 398.961 172.84 398.936 172.262L399.956 171.555C399.992 171.53 400.008 171.486 399.996 171.444L399.593 170.011H399.593Z" fill="url(#paint26_linear_167_3867)"/>
<path d="M394.586 173.523C394.018 174.121 393.069 174.147 392.47 173.579C392.18 173.304 392.014 172.933 392.003 172.534C391.993 172.134 392.138 171.755 392.414 171.465C392.982 170.866 393.931 170.841 394.53 171.409C395.075 171.925 395.145 172.757 394.725 173.353C394.684 173.412 394.637 173.469 394.586 173.523ZM392.352 172.524C392.361 172.83 392.488 173.115 392.71 173.326C393.169 173.761 393.897 173.742 394.332 173.283C394.768 172.824 394.749 172.097 394.289 171.662C393.83 171.227 393.102 171.246 392.667 171.705C392.627 171.746 392.592 171.79 392.559 171.837C392.418 172.037 392.346 172.276 392.352 172.524Z" fill="#FBDBBD"/>
<path d="M396.476 174.62C396.548 174.518 396.616 174.411 396.678 174.3C396.697 174.265 396.716 174.23 396.735 174.195C396.826 174.02 396.903 173.838 396.964 173.652C396.965 173.65 396.966 173.647 396.967 173.645C396.969 173.637 396.972 173.63 396.974 173.623C396.978 173.609 396.983 173.595 396.987 173.581C396.999 173.544 396.984 173.505 396.954 173.484C396.947 173.479 396.938 173.475 396.929 173.472C396.883 173.457 396.835 173.484 396.82 173.529C396.747 173.766 396.648 173.997 396.525 174.215C395.918 175.297 394.816 175.932 393.659 175.997C393.015 176.033 392.355 175.892 391.752 175.554C391.646 175.495 391.544 175.431 391.447 175.362C390.788 174.9 390.313 174.231 390.093 173.447C389.84 172.547 389.953 171.601 390.411 170.785C391.358 169.101 393.499 168.5 395.185 169.446C395.289 169.504 395.389 169.567 395.486 169.635C395.906 169.93 396.256 170.314 396.511 170.759C396.518 170.771 396.527 170.78 396.537 170.787C396.563 170.806 396.6 170.809 396.63 170.792C396.672 170.767 396.687 170.715 396.663 170.673C396.395 170.205 396.027 169.802 395.587 169.493C395.485 169.421 395.379 169.355 395.27 169.294C393.501 168.301 391.252 168.933 390.259 170.7C389.778 171.557 389.659 172.549 389.925 173.495C390.156 174.318 390.655 175.02 391.346 175.505C391.449 175.577 391.556 175.644 391.667 175.707C392.524 176.188 393.517 176.306 394.464 176.041C395.288 175.809 395.991 175.311 396.476 174.62L396.476 174.62Z" fill="#FBDBBD"/>
<path d="M599.996 242.192C599.966 242.086 599.872 242.01 599.762 242.003L596.613 241.82C595.902 240.531 594.979 239.347 593.862 238.323L594.424 235.224C594.444 235.116 594.392 235.007 594.296 234.952L590.997 233.102C590.901 233.048 590.781 233.061 590.698 233.134L588.343 235.228C586.887 234.807 585.394 234.637 583.923 234.702L582.126 232.112C582.063 232.021 581.949 231.98 581.843 232.01L578.201 233.032C578.094 233.062 578.018 233.156 578.012 233.266L577.828 236.412C576.538 237.123 575.352 238.044 574.328 239.161L571.227 238.599C571.118 238.579 571.009 238.63 570.954 238.727L569.102 242.023C569.048 242.119 569.061 242.239 569.135 242.321L571.231 244.674C570.81 246.129 570.64 247.621 570.704 249.091L568.112 250.886C568.021 250.949 567.98 251.062 568.01 251.169L569.033 254.808C569.063 254.914 569.157 254.99 569.267 254.997L572.416 255.18C573.127 256.469 574.05 257.653 575.167 258.677L574.605 261.775C574.585 261.884 574.636 261.993 574.733 262.048L578.032 263.898C578.128 263.952 578.248 263.939 578.331 263.866L580.686 261.772C582.142 262.193 583.635 262.363 585.106 262.298L586.903 264.888C586.966 264.979 587.08 265.02 587.186 264.99L590.828 263.968C590.935 263.938 591.011 263.844 591.017 263.734L591.201 260.588C592.491 259.877 593.676 258.956 594.701 257.839L597.802 258.401C597.911 258.421 598.02 258.37 598.075 258.273L599.927 254.977C599.981 254.881 599.968 254.761 599.894 254.678L597.799 252.325C598.22 250.871 598.39 249.379 598.325 247.909L600.918 246.114C601.009 246.051 601.05 245.937 601.02 245.831L599.997 242.192H599.996Z" fill="url(#paint27_linear_167_3867)"/>
<path d="M587.274 251.114C585.831 252.634 583.42 252.698 581.898 251.257C581.16 250.558 580.74 249.615 580.713 248.6C580.686 247.586 581.056 246.621 581.755 245.885C583.198 244.364 585.61 244.3 587.132 245.742C588.516 247.054 588.694 249.167 587.628 250.682C587.522 250.832 587.404 250.977 587.274 251.114ZM581.599 248.577C581.62 249.355 581.943 250.078 582.508 250.614C583.674 251.719 585.524 251.67 586.63 250.504C587.738 249.339 587.688 247.491 586.521 246.385C585.354 245.28 583.505 245.329 582.398 246.495C582.298 246.6 582.207 246.712 582.124 246.829C581.767 247.338 581.582 247.945 581.599 248.577Z" fill="#FBDBBD"/>
<path d="M592.076 253.901C592.259 253.641 592.43 253.37 592.588 253.089C592.638 253 592.687 252.911 592.733 252.821C592.964 252.377 593.16 251.915 593.316 251.442C593.319 251.436 593.321 251.429 593.323 251.423C593.329 251.405 593.335 251.387 593.341 251.368C593.352 251.332 593.364 251.297 593.374 251.261C593.404 251.167 593.367 251.068 593.29 251.014C593.272 251.001 593.251 250.991 593.228 250.984C593.111 250.948 592.987 251.014 592.951 251.13C592.765 251.732 592.513 252.318 592.202 252.871C590.657 255.622 587.857 257.234 584.918 257.399C583.283 257.491 581.604 257.134 580.073 256.275C579.805 256.125 579.546 255.962 579.297 255.787C577.625 254.613 576.418 252.914 575.858 250.922C575.215 248.634 575.502 246.231 576.667 244.158C579.073 239.878 584.512 238.353 588.795 240.755C589.059 240.903 589.315 241.064 589.56 241.237C590.627 241.986 591.518 242.96 592.165 244.092C592.182 244.121 592.204 244.145 592.23 244.163C592.298 244.211 592.391 244.219 592.468 244.174C592.574 244.113 592.612 243.978 592.55 243.872C591.871 242.683 590.936 241.661 589.816 240.874C589.558 240.693 589.289 240.524 589.013 240.368C584.516 237.846 578.804 239.451 576.28 243.942C575.057 246.118 574.756 248.64 575.431 251.042C576.019 253.134 577.286 254.917 579.042 256.15C579.303 256.333 579.575 256.504 579.856 256.662C582.034 257.884 584.558 258.186 586.963 257.511C589.058 256.923 590.843 255.656 592.077 253.902L592.076 253.901Z" fill="#FBDBBD"/>
<path d="M710.248 285.28C710.197 285.1 710.037 284.971 709.851 284.96L704.512 284.649C703.306 282.464 701.742 280.456 699.847 278.721L700.801 273.467C700.834 273.282 700.747 273.097 700.584 273.006L694.991 269.868C694.827 269.776 694.624 269.798 694.484 269.923L690.491 273.472C688.022 272.759 685.491 272.472 682.996 272.581L679.95 268.189C679.844 268.036 679.651 267.966 679.47 268.016L673.294 269.75C673.114 269.8 672.985 269.96 672.974 270.147L672.663 275.48C670.476 276.685 668.465 278.248 666.73 280.141L661.471 279.188C661.286 279.155 661.101 279.241 661.009 279.405L657.869 284.993C657.777 285.157 657.799 285.36 657.924 285.5L661.477 289.489C660.764 291.956 660.476 294.484 660.585 296.977L656.189 300.02C656.036 300.126 655.966 300.319 656.016 300.5L657.751 306.67C657.802 306.85 657.962 306.979 658.148 306.99L663.487 307.3C664.693 309.486 666.257 311.494 668.152 313.229L667.198 318.483C667.165 318.667 667.251 318.852 667.415 318.944L673.008 322.082C673.172 322.173 673.375 322.151 673.515 322.026L677.508 318.477C679.977 319.19 682.508 319.478 685.003 319.369L688.049 323.761C688.155 323.915 688.348 323.984 688.529 323.933L694.705 322.2C694.885 322.15 695.014 321.99 695.025 321.803L695.336 316.469C697.523 315.264 699.533 313.702 701.269 311.809L706.528 312.762C706.712 312.795 706.898 312.709 706.99 312.545L710.13 306.957C710.222 306.793 710.2 306.59 710.075 306.45L706.523 302.461C707.236 299.994 707.524 297.466 707.415 294.973L711.811 291.93C711.965 291.823 712.034 291.63 711.984 291.45L710.249 285.28H710.248Z" fill="url(#paint28_linear_167_3867)"/>
<path d="M688.678 300.407C686.231 302.985 682.143 303.093 679.563 300.648C678.312 299.465 677.6 297.865 677.554 296.144C677.508 294.425 678.135 292.789 679.321 291.541C681.767 288.963 685.856 288.855 688.436 291.299C690.784 293.523 691.085 297.106 689.278 299.674C689.098 299.929 688.899 300.174 688.678 300.407ZM679.057 296.105C679.092 297.424 679.639 298.65 680.597 299.558C682.575 301.432 685.711 301.35 687.586 299.373C689.464 297.397 689.379 294.264 687.4 292.389C685.423 290.515 682.287 290.598 680.412 292.575C680.241 292.754 680.087 292.943 679.947 293.142C679.341 294.004 679.028 295.033 679.057 296.105Z" fill="#FBDBBD"/>
<path d="M696.82 305.132C697.13 304.691 697.421 304.232 697.688 303.755C697.773 303.605 697.855 303.453 697.934 303.301C698.326 302.548 698.657 301.765 698.923 300.964C698.926 300.953 698.93 300.942 698.934 300.931C698.944 300.899 698.954 300.869 698.964 300.838C698.983 300.777 699.003 300.716 699.021 300.656C699.071 300.496 699.008 300.329 698.879 300.238C698.847 300.216 698.811 300.198 698.773 300.186C698.574 300.125 698.364 300.237 698.303 300.434C697.988 301.454 697.56 302.448 697.032 303.386C694.414 308.049 689.667 310.783 684.684 311.063C681.911 311.218 679.065 310.613 676.47 309.158C676.014 308.902 675.575 308.626 675.154 308.33C672.319 306.34 670.273 303.459 669.323 300.081C668.232 296.201 668.719 292.128 670.694 288.614C674.773 281.357 683.996 278.771 691.257 282.844C691.705 283.094 692.138 283.367 692.555 283.661C694.363 284.931 695.873 286.582 696.971 288.501C696.999 288.551 697.037 288.591 697.081 288.622C697.196 288.703 697.353 288.716 697.484 288.641C697.664 288.537 697.728 288.309 697.624 288.128C696.471 286.112 694.886 284.379 692.988 283.046C692.55 282.738 692.095 282.452 691.626 282.188C684.002 277.912 674.317 280.632 670.038 288.246C667.965 291.936 667.454 296.211 668.599 300.285C669.597 303.831 671.744 306.855 674.721 308.945C675.163 309.256 675.624 309.545 676.102 309.814C679.795 311.885 684.074 312.396 688.151 311.252C691.702 310.256 694.729 308.108 696.821 305.134L696.82 305.132Z" fill="#FBDBBD"/>
<path d="M803.28 865.097C803.26 865.023 803.194 864.97 803.117 864.966L800.924 864.838C800.429 863.941 799.787 863.116 799.009 862.403L799.4 860.245C799.414 860.169 799.378 860.094 799.311 860.056L797.014 858.767C796.947 858.73 796.863 858.739 796.806 858.79L795.166 860.248C794.152 859.955 793.113 859.837 792.088 859.881L790.837 858.078C790.793 858.015 790.714 857.986 790.64 858.007L788.103 858.719C788.029 858.739 787.976 858.805 787.972 858.882L787.844 861.072C786.946 861.567 786.12 862.209 785.407 862.986L783.247 862.595C783.171 862.581 783.095 862.617 783.057 862.684L781.768 864.979C781.73 865.047 781.739 865.13 781.79 865.187L783.25 866.826C782.956 867.839 782.838 868.877 782.883 869.901L781.078 871.151C781.015 871.195 780.986 871.274 781.007 871.348L781.719 873.882C781.74 873.956 781.806 874.009 781.882 874.014L784.075 874.141C784.57 875.039 785.213 875.863 785.991 876.576L785.599 878.734C785.585 878.81 785.621 878.886 785.688 878.923L787.986 880.212C788.053 880.25 788.136 880.241 788.194 880.189L789.834 878.732C790.848 879.025 791.887 879.143 792.912 879.098L794.163 880.902C794.207 880.965 794.286 880.993 794.36 880.973L796.897 880.261C796.971 880.24 797.023 880.174 797.028 880.098L797.156 877.907C798.054 877.412 798.88 876.77 799.593 875.993L801.753 876.384C801.828 876.398 801.904 876.362 801.942 876.295L803.232 874C803.27 873.933 803.261 873.849 803.209 873.792L801.75 872.154C802.043 871.14 802.162 870.102 802.117 869.078L803.922 867.828C803.986 867.785 804.014 867.705 803.993 867.631L803.281 865.097H803.28Z" fill="url(#paint29_linear_167_3867)"/>
<path d="M794.422 871.31C793.417 872.369 791.737 872.413 790.678 871.409C790.164 870.923 789.871 870.266 789.853 869.559C789.834 868.853 790.091 868.181 790.578 867.669C791.583 866.61 793.262 866.565 794.322 867.569C795.286 868.483 795.41 869.954 794.668 871.009C794.594 871.114 794.512 871.214 794.422 871.31ZM790.47 869.543C790.484 870.085 790.709 870.588 791.103 870.962C791.915 871.731 793.203 871.697 793.973 870.885C794.744 870.074 794.709 868.787 793.897 868.017C793.085 867.247 791.797 867.281 791.026 868.093C790.956 868.167 790.893 868.245 790.836 868.326C790.587 868.68 790.458 869.103 790.47 869.543Z" fill="#FBDBBD"/>
<path d="M797.765 873.251C797.893 873.07 798.012 872.881 798.122 872.685C798.157 872.623 798.19 872.561 798.223 872.499C798.384 872.189 798.52 871.868 798.629 871.539C798.631 871.534 798.632 871.53 798.634 871.525C798.638 871.512 798.642 871.5 798.646 871.487C798.654 871.462 798.662 871.437 798.669 871.412C798.69 871.347 798.664 871.278 798.611 871.24C798.598 871.231 798.583 871.224 798.567 871.219C798.486 871.194 798.4 871.24 798.374 871.321C798.245 871.74 798.069 872.148 797.853 872.534C796.777 874.449 794.828 875.572 792.781 875.686C791.642 875.75 790.473 875.502 789.407 874.904C789.22 874.799 789.04 874.686 788.867 874.564C787.703 873.747 786.862 872.563 786.472 871.176C786.024 869.583 786.224 867.91 787.035 866.466C788.711 863.486 792.498 862.424 795.48 864.096C795.664 864.2 795.842 864.312 796.014 864.432C796.756 864.954 797.377 865.632 797.827 866.42C797.839 866.44 797.855 866.457 797.873 866.47C797.92 866.503 797.984 866.508 798.038 866.477C798.112 866.435 798.138 866.341 798.096 866.267C797.622 865.439 796.971 864.727 796.191 864.18C796.012 864.053 795.825 863.936 795.632 863.827C792.501 862.071 788.523 863.188 786.766 866.315C785.914 867.831 785.704 869.587 786.175 871.26C786.584 872.716 787.466 873.958 788.689 874.817C788.871 874.944 789.06 875.063 789.256 875.174C790.773 876.024 792.53 876.234 794.205 875.764C795.663 875.355 796.907 874.473 797.766 873.252L797.765 873.251Z" fill="#FBDBBD"/>
<path d="M544.593 959.011C544.582 958.97 544.544 958.94 544.501 958.937L543.262 958.865C542.982 958.358 542.619 957.892 542.179 957.489L542.4 956.269C542.408 956.226 542.388 956.183 542.35 956.162L541.051 955.434C541.013 955.412 540.966 955.417 540.934 955.446L540.007 956.27C539.434 956.105 538.846 956.038 538.267 956.063L537.56 955.044C537.535 955.008 537.49 954.992 537.448 955.004L536.015 955.406C535.973 955.418 535.943 955.455 535.94 955.498L535.868 956.737C535.361 957.016 534.894 957.379 534.491 957.818L533.27 957.597C533.227 957.589 533.184 957.61 533.163 957.648L532.434 958.945C532.412 958.983 532.418 959.03 532.447 959.062L533.272 959.989C533.106 960.561 533.039 961.148 533.064 961.727L532.044 962.433C532.008 962.458 531.992 962.503 532.004 962.545L532.407 963.977C532.418 964.019 532.455 964.049 532.499 964.051L533.738 964.123C534.018 964.631 534.381 965.097 534.821 965.5L534.599 966.719C534.592 966.762 534.612 966.805 534.65 966.826L535.948 967.555C535.986 967.576 536.034 967.571 536.066 967.542L536.993 966.718C537.566 966.883 538.154 966.95 538.733 966.925L539.44 967.944C539.465 967.98 539.509 967.996 539.551 967.985L540.985 967.582C541.027 967.57 541.057 967.533 541.059 967.49L541.131 966.252C541.639 965.972 542.106 965.609 542.509 965.17L543.73 965.391C543.772 965.399 543.816 965.379 543.837 965.341L544.566 964.043C544.587 964.006 544.582 963.958 544.553 963.926L543.728 963C543.894 962.427 543.961 961.84 543.936 961.262L544.956 960.555C544.992 960.53 545.008 960.486 544.996 960.444L544.593 959.011H544.593Z" fill="url(#paint30_linear_167_3867)"/>
<path d="M539.586 962.523C539.018 963.121 538.069 963.147 537.47 962.579C537.18 962.304 537.014 961.933 537.003 961.534C536.993 961.134 537.138 960.755 537.414 960.465C537.982 959.866 538.931 959.841 539.53 960.409C540.075 960.925 540.145 961.757 539.725 962.353C539.684 962.412 539.637 962.469 539.586 962.523ZM537.352 961.524C537.361 961.83 537.488 962.115 537.71 962.326C538.169 962.761 538.897 962.742 539.332 962.283C539.768 961.824 539.749 961.097 539.289 960.662C538.83 960.227 538.102 960.246 537.667 960.705C537.627 960.746 537.592 960.79 537.559 960.837C537.418 961.037 537.346 961.276 537.352 961.524Z" fill="#FBDBBD"/>
<path d="M541.476 963.62C541.548 963.518 541.616 963.411 541.678 963.3C541.697 963.265 541.716 963.23 541.735 963.195C541.826 963.02 541.903 962.838 541.964 962.652C541.965 962.65 541.966 962.647 541.967 962.645C541.969 962.637 541.972 962.63 541.974 962.623C541.978 962.609 541.983 962.595 541.987 962.581C541.999 962.544 541.984 962.505 541.954 962.484C541.947 962.479 541.938 962.475 541.929 962.472C541.883 962.457 541.835 962.484 541.82 962.529C541.747 962.766 541.648 962.997 541.525 963.215C540.918 964.297 539.816 964.932 538.659 964.997C538.015 965.033 537.355 964.892 536.752 964.554C536.646 964.495 536.544 964.431 536.447 964.362C535.788 963.9 535.313 963.231 535.093 962.447C534.84 961.547 534.953 960.601 535.411 959.785C536.358 958.101 538.499 957.5 540.185 958.446C540.289 958.504 540.389 958.567 540.486 958.635C540.906 958.93 541.256 959.314 541.511 959.759C541.518 959.771 541.527 959.78 541.537 959.787C541.563 959.806 541.6 959.809 541.63 959.792C541.672 959.767 541.687 959.715 541.663 959.673C541.395 959.205 541.027 958.802 540.587 958.493C540.485 958.421 540.379 958.355 540.27 958.294C538.501 957.301 536.252 957.933 535.259 959.7C534.778 960.557 534.659 961.549 534.925 962.495C535.156 963.318 535.655 964.02 536.346 964.505C536.449 964.577 536.556 964.644 536.667 964.707C537.524 965.188 538.517 965.306 539.464 965.041C540.288 964.809 540.991 964.311 541.476 963.62L541.476 963.62Z" fill="#FBDBBD"/>
<defs>
<linearGradient id="paint0_linear_167_3867" x1="346.385" y1="809.981" x2="660.715" y2="491.219" gradientUnits="userSpaceOnUse">
<stop stop-color="#575757"/>
<stop offset="1" stop-color="#454545"/>
</linearGradient>
<linearGradient id="paint1_linear_167_3867" x1="472.046" y1="382.544" x2="532.93" y2="382.544" gradientUnits="userSpaceOnUse">
<stop stop-color="#D2722E"/>
<stop offset="1" stop-color="#D24255"/>
</linearGradient>
<linearGradient id="paint2_linear_167_3867" x1="639.994" y1="564.681" x2="659.441" y2="564.681" gradientUnits="userSpaceOnUse">
<stop stop-color="#FEC854"/>
<stop offset="1" stop-color="#B46F2F"/>
</linearGradient>
<linearGradient id="paint3_linear_167_3867" x1="629.251" y1="326.14" x2="672.167" y2="398.04" gradientUnits="userSpaceOnUse">
<stop stop-color="#E1473D"/>
<stop offset="1" stop-color="#E9605A"/>
</linearGradient>
<linearGradient id="paint4_linear_167_3867" x1="629.699" y1="333.019" x2="663.065" y2="388.92" gradientUnits="userSpaceOnUse">
<stop stop-color="#FE7062"/>
<stop offset="1" stop-color="#FF928E"/>
</linearGradient>
<linearGradient id="paint5_linear_167_3867" x1="619.552" y1="329.242" x2="602.094" y2="457.636" gradientUnits="userSpaceOnUse">
<stop stop-color="#E1473D"/>
<stop offset="1" stop-color="#E9605A"/>
</linearGradient>
<linearGradient id="paint6_linear_167_3867" x1="613.727" y1="368.257" x2="606.133" y2="477.205" gradientUnits="userSpaceOnUse">
<stop stop-color="#FE7062"/>
<stop offset="1" stop-color="#FF928E"/>
</linearGradient>
<linearGradient id="paint7_linear_167_3867" x1="653.464" y1="389.319" x2="636.218" y2="468.882" gradientUnits="userSpaceOnUse">
<stop stop-color="#E1473D"/>
<stop offset="1" stop-color="#E9605A"/>
</linearGradient>
<linearGradient id="paint8_linear_167_3867" x1="649.789" y1="392.15" x2="650.174" y2="409.657" gradientUnits="userSpaceOnUse">
<stop stop-color="#E1473D"/>
<stop offset="1" stop-color="#E9605A"/>
</linearGradient>
<linearGradient id="paint9_linear_167_3867" x1="652.352" y1="450.232" x2="635.742" y2="526.867" gradientUnits="userSpaceOnUse">
<stop stop-color="#E1473D"/>
<stop offset="1" stop-color="#E9605A"/>
</linearGradient>
<linearGradient id="paint10_linear_167_3867" x1="648.844" y1="452.948" x2="649.214" y2="469.809" gradientUnits="userSpaceOnUse">
<stop stop-color="#E1473D"/>
<stop offset="1" stop-color="#E9605A"/>
</linearGradient>
<linearGradient id="paint11_linear_167_3867" x1="652.862" y1="503.631" x2="635.605" y2="583.242" gradientUnits="userSpaceOnUse">
<stop stop-color="#E1473D"/>
<stop offset="1" stop-color="#E9605A"/>
</linearGradient>
<linearGradient id="paint12_linear_167_3867" x1="649.183" y1="506.457" x2="649.568" y2="523.974" gradientUnits="userSpaceOnUse">
<stop stop-color="#E1473D"/>
<stop offset="1" stop-color="#E9605A"/>
</linearGradient>
<linearGradient id="paint13_linear_167_3867" x1="570.318" y1="546.302" x2="661.406" y2="547.162" gradientUnits="userSpaceOnUse">
<stop stop-color="#FEBBBA"/>
<stop offset="1" stop-color="#FF928E"/>
</linearGradient>
<linearGradient id="paint14_linear_167_3867" x1="641.314" y1="532.691" x2="578.975" y2="671.097" gradientUnits="userSpaceOnUse">
<stop stop-color="#FEBBBA"/>
<stop offset="1" stop-color="#FF928E"/>
</linearGradient>
<linearGradient id="paint15_linear_167_3867" x1="661.542" y1="486.498" x2="687.383" y2="447.54" gradientUnits="userSpaceOnUse">
<stop stop-color="#FEBBBA"/>
<stop offset="1" stop-color="#FF928E"/>
</linearGradient>
<linearGradient id="paint16_linear_167_3867" x1="369.773" y1="674.189" x2="485.043" y2="675.277" gradientUnits="userSpaceOnUse">
<stop stop-color="#FEBBBA"/>
<stop offset="1" stop-color="#FF928E"/>
</linearGradient>
<linearGradient id="paint17_linear_167_3867" x1="459.45" y1="551.906" x2="505.026" y2="552.336" gradientUnits="userSpaceOnUse">
<stop stop-color="#FEBBBA"/>
<stop offset="1" stop-color="#FF928E"/>
</linearGradient>
<linearGradient id="paint18_linear_167_3867" x1="516.224" y1="523.6" x2="466.426" y2="492.548" gradientUnits="userSpaceOnUse">
<stop stop-color="#FEBBBA"/>
<stop offset="1" stop-color="#FF928E"/>
</linearGradient>
<linearGradient id="paint19_linear_167_3867" x1="502.954" y1="534.863" x2="458.15" y2="506.925" gradientUnits="userSpaceOnUse">
<stop stop-color="#FEBBBA"/>
<stop offset="1" stop-color="#FF928E"/>
</linearGradient>
<linearGradient id="paint20_linear_167_3867" x1="516.007" y1="601.147" x2="579.507" y2="865.971" gradientUnits="userSpaceOnUse">
<stop stop-color="#5D2C1D"/>
<stop offset="1" stop-color="#453415"/>
</linearGradient>
<linearGradient id="paint21_linear_167_3867" x1="472.42" y1="671.2" x2="508.46" y2="671.2" gradientUnits="userSpaceOnUse">
<stop stop-color="#FEBBBA"/>
<stop offset="1" stop-color="#FF928E"/>
</linearGradient>
<linearGradient id="paint22_linear_167_3867" x1="386" y1="419.45" x2="476.982" y2="419.45" gradientUnits="userSpaceOnUse">
<stop stop-color="#D2722E"/>
<stop offset="1" stop-color="#D24255"/>
</linearGradient>
<linearGradient id="paint23_linear_167_3867" x1="223" y1="638.45" x2="313.982" y2="638.45" gradientUnits="userSpaceOnUse">
<stop stop-color="#D2722E"/>
<stop offset="1" stop-color="#D24255"/>
</linearGradient>
<linearGradient id="paint24_linear_167_3867" x1="265" y1="350.49" x2="288" y2="350.49" gradientUnits="userSpaceOnUse">
<stop stop-color="#D2722E"/>
<stop offset="1" stop-color="#D24255"/>
</linearGradient>
<linearGradient id="paint25_linear_167_3867" x1="245" y1="244.49" x2="268" y2="244.49" gradientUnits="userSpaceOnUse">
<stop stop-color="#D2722E"/>
<stop offset="1" stop-color="#D24255"/>
</linearGradient>
<linearGradient id="paint26_linear_167_3867" x1="387" y1="172.494" x2="400" y2="172.494" gradientUnits="userSpaceOnUse">
<stop stop-color="#D2722E"/>
<stop offset="1" stop-color="#D24255"/>
</linearGradient>
<linearGradient id="paint27_linear_167_3867" x1="568" y1="248.5" x2="601.03" y2="248.5" gradientUnits="userSpaceOnUse">
<stop stop-color="#D2722E"/>
<stop offset="1" stop-color="#D24255"/>
</linearGradient>
<linearGradient id="paint28_linear_167_3867" x1="656" y1="295.975" x2="712" y2="295.975" gradientUnits="userSpaceOnUse">
<stop stop-color="#D2722E"/>
<stop offset="1" stop-color="#D24255"/>
</linearGradient>
<linearGradient id="paint29_linear_167_3867" x1="781" y1="869.49" x2="804" y2="869.49" gradientUnits="userSpaceOnUse">
<stop stop-color="#D2722E"/>
<stop offset="1" stop-color="#D24255"/>
</linearGradient>
<linearGradient id="paint30_linear_167_3867" x1="532" y1="961.494" x2="545" y2="961.494" gradientUnits="userSpaceOnUse">
<stop stop-color="#D2722E"/>
<stop offset="1" stop-color="#D24255"/>
</linearGradient>
<clipPath id="clip0_167_3867">
<rect width="415" height="416" fill="white" transform="translate(370 342)"/>
</clipPath>
</defs>
</svg>
